<svg width="500" height="500" viewBox="0 0 500 500" fill="none" xmlns="http://www.w3.org/2000/svg">
<g clip-path="url(#clip0_221_1404)">
<path opacity="0.2" d="M365.291 369.968L431.256 393.293L467.275 305.237L403.644 282.737L365.291 369.968Z" fill="black"/>
<path d="M363.265 369.252L430.642 393.077L466.665 305.021L403.645 282.738L363.265 369.252Z" fill="#E6E6E6"/>
<path opacity="0.1" d="M366.712 368.599L428.405 390.413L462.583 306.966L404.314 286.358L366.712 368.599Z" fill="black"/>
<path d="M462.585 306.963C451.976 334.696 439.642 361.739 425.655 387.933L381.182 372.207C376.32 370.324 367.241 366.876 367.241 366.876C367.241 366.876 394.94 310.851 404.314 286.358L462.585 306.963Z" fill="#FAFAFA"/>
<path d="M443.199 307.531C441.775 311.146 440.322 314.75 438.839 318.342L449.852 322.236C451.338 318.643 452.792 315.039 454.213 311.425L443.199 307.531ZM449.28 320.958L440.187 317.743C441.412 314.772 442.612 311.796 443.789 308.815L452.882 312.03C451.702 315.012 450.501 317.988 449.28 320.958Z" fill="#E0E0E0"/>
<path d="M435.076 324.652C433.654 328.268 432.2 331.873 430.715 335.467L441.725 339.36C443.211 335.764 444.666 332.16 446.09 328.547L435.076 324.652ZM441.155 338.083L432.063 334.868C433.282 331.897 434.483 328.92 435.666 325.937L444.759 329.152C443.575 332.138 442.374 335.115 441.155 338.083Z" fill="#E0E0E0"/>
<path d="M427.411 341.27C425.99 344.884 424.537 348.488 423.051 352.081L434.068 355.977C435.551 352.382 437.005 348.779 438.428 345.165L427.411 341.27ZM433.492 354.697L424.399 351.482C425.619 348.509 426.82 345.533 428.001 342.554L437.094 345.769C435.915 348.749 434.714 351.725 433.492 354.697Z" fill="#E0E0E0"/>
<path d="M418.503 358.703C417.081 362.319 415.627 365.924 414.142 369.518L425.155 373.412C426.639 369.815 428.093 366.211 429.516 362.597L418.503 358.703ZM424.582 372.134L415.49 368.919C416.709 365.948 417.91 362.971 419.093 359.987L428.186 363.202C427.003 366.184 425.802 369.161 424.582 372.134Z" fill="#E0E0E0"/>
<path d="M404.005 300.933L435.145 311.944C434.879 312.616 434.612 313.287 434.344 313.958L403.201 302.946L404.005 300.933Z" fill="#E6E6E6"/>
<path d="M412.242 300.175L436.605 308.79C436.338 309.461 436.063 310.129 435.791 310.799L411.421 302.181C411.695 301.513 411.967 300.843 412.242 300.175Z" fill="#E6E6E6"/>
<path d="M394.656 318.284L425.793 329.294C425.528 329.966 425.26 330.637 424.992 331.307L393.852 320.296C394.118 319.632 394.392 318.956 394.656 318.284Z" fill="#E6E6E6"/>
<path d="M402.896 317.515L427.264 326.131C426.992 326.801 426.718 327.47 426.446 328.139L402.079 319.523C402.349 318.857 402.615 318.181 402.896 317.515Z" fill="#E6E6E6"/>
<path d="M380.374 351.771L411.511 362.781C411.243 363.452 410.978 364.124 410.707 364.793L379.567 353.782C379.838 353.118 380.107 352.447 380.374 351.771Z" fill="#E6E6E6"/>
<path d="M388.615 351.002L412.978 359.617C412.711 360.288 412.436 360.957 412.164 361.626L387.794 353.009C388.067 352.344 388.339 351.674 388.615 351.002Z" fill="#E6E6E6"/>
<path d="M388.761 334.467L419.897 345.477C419.63 346.148 419.365 346.82 419.094 347.49L387.954 336.479C388.225 335.814 388.494 335.143 388.761 334.467Z" fill="#E6E6E6"/>
<path d="M396.998 333.697L421.365 342.313C421.097 342.984 420.823 343.652 420.548 344.321L396.18 335.705C396.451 335.038 396.725 334.37 396.998 333.697Z" fill="#E6E6E6"/>
<path d="M417.135 292.687L449.772 304.227L449.847 303.105C450.014 300.286 450.272 298.471 447.884 297.626C447.884 297.626 440.04 294.343 440.062 293.574C440.084 292.661 439.813 291.764 439.289 291.014C438.766 290.264 438.017 289.699 437.15 289.402C436.255 289.097 435.29 289.059 434.374 289.294C433.458 289.528 432.63 290.024 431.993 290.721C431.466 291.3 422.585 288.681 422.585 288.681C420.18 287.83 419.749 289.592 417.878 291.801L417.135 292.687Z" fill="#E0E0E0"/>
<path opacity="0.2" d="M138.074 225.878L186.211 175.101L120.415 106.383L73.9812 155.363L138.074 225.878Z" fill="black"/>
<path d="M136.596 227.438L185.763 175.574L119.97 106.853L73.9816 155.363L136.596 227.438Z" fill="#E6E6E6"/>
<path opacity="0.1" d="M137.401 224.023L182.42 176.535L120.086 111.372L77.5614 156.224L137.401 224.023Z" fill="black"/>
<path d="M120.083 111.37C141.105 132.341 160.794 154.607 179.035 178.038L146.581 212.272C142.884 215.947 136.041 222.839 136.041 222.839C136.041 222.839 96.1235 174.749 77.5609 156.224L120.083 111.37Z" fill="#FAFAFA"/>
<path d="M112.719 129.311C115.442 132.082 118.143 134.876 120.822 137.691L128.859 129.213C126.18 126.395 123.479 123.601 120.756 120.833L112.719 129.311ZM127.458 129.217L120.823 136.216C118.607 133.889 116.376 131.581 114.132 129.294L120.767 122.295C123.012 124.586 125.242 126.893 127.458 129.217Z" fill="#E0E0E0"/>
<path d="M125.057 143.695C127.782 146.465 130.484 149.259 133.163 152.078L141.197 143.603C138.517 140.782 135.815 137.987 133.093 135.217L125.057 143.695ZM139.799 143.604L133.164 150.603C130.946 148.28 128.714 145.972 126.47 143.678L133.105 136.679C135.351 138.975 137.583 141.283 139.799 143.604Z" fill="#E0E0E0"/>
<path d="M137.12 157.455C139.844 160.223 142.545 163.017 145.224 165.835L153.263 157.355C150.582 154.538 147.881 151.745 145.159 148.975L137.12 157.455ZM151.86 157.361L145.225 164.36C143.005 162.037 140.774 159.729 138.533 157.438L145.168 150.439C147.411 152.729 149.642 155.036 151.86 157.361Z" fill="#E0E0E0"/>
<path d="M149.424 172.684C152.149 175.454 154.851 178.248 157.53 181.067L165.567 172.589C162.885 169.771 160.183 166.976 157.461 164.206L149.424 172.684ZM164.166 172.593L157.531 179.592C155.313 177.27 153.082 174.962 150.837 172.667L157.472 165.668C159.715 167.961 161.946 170.269 164.166 172.593Z" fill="#E0E0E0"/>
<path d="M90.7502 162.434L113.474 138.464C113.98 138.98 114.484 139.497 114.988 140.014L92.2619 163.987L90.7502 162.434Z" fill="#E6E6E6"/>
<path d="M93.4072 154.601L111.186 135.847C111.69 136.365 112.189 136.887 112.691 137.408L94.9065 156.167C94.4075 155.644 93.9061 155.124 93.4072 154.601Z" fill="#E6E6E6"/>
<path d="M102.8 178.031L125.521 154.063C126.028 154.578 126.532 155.096 127.036 155.614L104.312 179.584C103.813 179.071 103.306 178.546 102.8 178.031Z" fill="#E6E6E6"/>
<path d="M105.449 170.19L123.23 151.433C123.732 151.954 124.231 152.476 124.732 152.997L106.95 171.753C106.452 171.236 105.943 170.718 105.449 170.19Z" fill="#E6E6E6"/>
<path d="M127.584 204.698L150.305 180.73C150.809 181.248 151.315 181.763 151.817 182.283L129.093 206.253C128.596 205.735 128.093 205.217 127.584 204.698Z" fill="#E6E6E6"/>
<path d="M130.232 196.857L148.012 178.103C148.515 178.62 149.014 179.143 149.516 179.663L131.732 198.423C131.235 197.903 130.734 197.382 130.232 196.857Z" fill="#E6E6E6"/>
<path d="M115.186 189.998L137.908 166.031C138.412 166.548 138.918 167.063 139.419 167.583L116.696 191.553C116.198 191.035 115.695 190.517 115.186 189.998Z" fill="#E6E6E6"/>
<path d="M117.833 182.16L135.615 163.403C136.119 163.921 136.618 164.444 137.117 164.966L119.335 183.723C118.836 183.205 118.337 182.683 117.833 182.16Z" fill="#E6E6E6"/>
<path d="M88.557 147.085L112.374 121.963L111.379 121.438C108.872 120.138 107.318 119.164 105.575 121.003C105.575 121.003 99.3861 126.834 98.6926 126.5C97.867 126.11 96.9376 125.992 96.0393 126.166C95.141 126.339 94.3204 126.793 93.6965 127.464C93.0537 128.158 92.6269 129.025 92.4685 129.957C92.31 130.889 92.4268 131.846 92.8044 132.712C93.1191 133.429 87.114 140.477 87.114 140.477C85.3588 142.328 86.7928 143.438 88.0501 146.046L88.557 147.085Z" fill="#E0E0E0"/>
<path d="M226.127 127.376L212.963 95.9914C212.963 95.9914 221.697 86.6989 231.558 94.7039C239.97 101.517 235.869 111.134 241.742 118.917C243.751 121.584 245.302 122.756 246.482 124.715C242.278 127.403 234.704 127.188 226.127 127.376Z" fill="#263238"/>
<path d="M214.444 115.812C218.14 122.197 224.192 135.55 220.944 141.592C220.944 141.592 224.699 146.668 237.536 142.738C251.647 138.418 242.403 135.022 242.403 135.022C234.076 135.575 231.935 128.582 231.46 122.889L214.444 115.812Z" fill="#FDBBB5"/>
<path opacity="0.1" d="M218.376 116L231.39 121.959C231.527 123.284 231.504 124.342 231.839 125.64C229.206 125.989 220.787 122.681 219.491 119.722C218.924 118.551 218.546 117.289 218.376 116Z" fill="black"/>
<path d="M222.892 128.816C217.81 128.874 211.696 131.174 205.472 132.673C205.566 132.388 206.099 130.621 206.197 130.313C207.415 126.571 200.938 123.069 202.234 118.032C203.53 112.994 203.409 113.523 202.255 107.611C200.787 100.008 214.138 90.6923 217.353 95.3217C217.353 95.3217 220.533 98.9138 218.435 106.945C216.337 114.976 216.272 117.498 219.799 119.968C222.409 121.735 222.85 125.171 222.892 128.816Z" fill="#263238"/>
<path d="M212.264 111.218C215.819 118.898 216.801 120.843 222.295 123.352C230.562 127.13 239.433 122.532 238.214 113.956C237.116 106.229 231.496 94.9584 222.68 94.7915C213.865 94.6247 208.72 103.535 212.264 111.218Z" fill="#FDBBB5"/>
<path d="M211.209 101.031C211.209 101.031 220.907 92.5762 224.681 99.4298C225.866 101.58 228.538 100.206 231.757 98.7924C234.977 97.3792 226.981 93.0156 223.17 92.4931C219.358 91.9706 211.569 98.5253 211.209 101.031Z" fill="#263238"/>
<path d="M205.139 107.379C206.996 111.302 206.82 112.553 206.14 114.472L214.448 117.051C214.754 116.545 215.136 116.089 215.581 115.699C215.801 115.471 216.039 115.195 216.286 114.916C217.737 113.199 219.337 110.635 218.177 107.654C217.87 106.866 217.606 106.061 217.385 105.245C217.184 104.526 217.022 103.798 216.9 103.062C216.076 98.1606 217.42 95.2897 217.42 95.2897C215.227 92.5822 201.664 100.028 205.139 107.379Z" fill="#263238"/>
<path d="M210.172 116.391C211.417 117.958 213.157 119.828 215.243 120.243C220.261 120.197 219.271 118.552 218.131 115.863C217.266 113.63 214.649 111.051 212.072 111.359C209.495 111.668 208.926 114.825 210.172 116.391Z" fill="#FDBBB5"/>
<path d="M198.734 290.79C189.632 286.417 177.283 291.034 173.292 300.315C171.723 303.971 171.216 308.286 168.373 311.081C164.039 315.366 156.697 313.883 151.015 316.164C144.352 318.836 140.854 327.467 143.768 333.987C145.085 336.928 147.541 339.739 146.929 342.905C146.154 346.944 140.874 348.715 139.624 352.632C138.499 356.173 141.393 360.001 144.947 361.12C148.5 362.238 152.358 361.331 155.871 360.08C159.384 358.829 162.85 357.241 166.557 356.949C170.647 356.638 174.639 357.988 178.751 358.302C188.577 359.116 198.235 354.031 204.857 346.755C211.48 339.479 215.532 330.214 218.662 320.888" fill="#6C63FF"/>
<g opacity="0.8">
<path d="M198.734 290.791C189.632 286.418 177.283 291.035 173.292 300.316C171.723 303.972 171.216 308.287 168.373 311.082C164.039 315.367 156.697 313.884 151.015 316.165C144.352 318.837 140.854 327.468 143.768 333.988C145.085 336.929 147.541 339.74 146.929 342.906C146.154 346.945 140.874 348.716 139.624 352.633C138.499 356.174 141.393 360.002 144.947 361.121C148.5 362.239 152.358 361.332 155.871 360.081C159.384 358.83 162.85 357.242 166.557 356.95C170.647 356.639 174.639 357.989 178.751 358.303C188.577 359.117 198.235 354.032 204.857 346.756C211.48 339.48 215.532 330.215 218.662 320.889" fill="white"/>
</g>
<path d="M199.742 300.235C192.208 296.372 181.744 300.44 178.835 308.364C177.062 313.199 177.189 319.723 172.491 321.878C169.312 323.343 165.415 321.817 162.145 323.099C157.795 324.796 156.758 331.023 159.214 334.964C161.67 338.906 166.41 340.834 171.009 341.632C186.932 344.381 204.181 335.067 210.594 320.26" fill="#6C63FF"/>
<path d="M335.592 274.347L324.9 266.097L332.513 256.27L343.525 267.941L336.009 274.121" fill="#FFBE9D"/>
<path d="M342.543 266.184L350.733 274.054C350.733 274.054 361.532 268.387 363.188 269.693L348.406 286.093L335.142 274.352L342.543 266.184Z" fill="#6C63FF"/>
<g opacity="0.6">
<path d="M345.443 278.491C345.349 278.693 345.333 278.922 345.398 279.134C345.463 279.346 345.605 279.527 345.795 279.641C345.995 279.737 346.223 279.755 346.435 279.69C346.647 279.625 346.826 279.483 346.938 279.292C347.038 279.078 347.055 278.835 346.986 278.609C346.917 278.384 346.767 278.192 346.564 278.071C346.347 277.989 346.106 277.994 345.892 278.085C345.678 278.175 345.507 278.344 345.414 278.556" fill="white"/>
</g>
<g opacity="0.6">
<path d="M348.405 286.093L347.116 284.857L361.776 269.598C361.776 269.598 362.754 269.151 363.214 269.685L348.405 286.093Z" fill="white"/>
</g>
<path d="M350.888 273.711C350.961 273.787 350.642 274.222 350.53 274.846C350.418 275.471 350.575 275.985 350.484 276.034C350.393 276.083 350.023 275.542 350.16 274.791C350.297 274.039 350.828 273.631 350.888 273.711Z" fill="#263238"/>
<path d="M353.149 272.633C353.242 272.682 353.067 273.15 353.159 273.726C353.251 274.302 353.543 274.704 353.48 274.773C353.416 274.842 352.909 274.498 352.801 273.779C352.694 273.06 353.076 272.578 353.149 272.633Z" fill="#263238"/>
<path d="M356.097 273.501C356.045 273.587 355.546 273.339 355.293 272.742C355.039 272.145 355.201 271.611 355.294 271.639C355.387 271.667 355.435 272.101 355.636 272.595C355.836 273.089 356.154 273.413 356.097 273.501Z" fill="#263238"/>
<path d="M348.823 272.123C348.854 272.226 348.421 272.492 348.045 272.973C347.67 273.453 347.493 273.936 347.387 273.912C347.281 273.888 347.299 273.3 347.735 272.744C348.172 272.189 348.795 272.033 348.823 272.123Z" fill="#263238"/>
<path d="M347.139 270.567C347.15 270.605 346.934 270.96 346.394 271.385C345.886 271.787 345.302 272.083 344.677 272.255C344.545 272.305 344.405 272.331 344.263 272.332C344.159 272.336 344.056 272.303 343.973 272.241C343.89 272.178 343.83 272.089 343.805 271.988C343.784 271.898 343.786 271.804 343.808 271.714C343.831 271.624 343.875 271.54 343.936 271.47C344.028 271.365 344.136 271.275 344.256 271.203C344.446 271.071 344.647 270.956 344.856 270.858C345.232 270.693 345.63 270.588 346.038 270.545C346.725 270.483 347.154 270.618 347.147 270.663C347.139 270.707 346.722 270.68 346.076 270.808C345.704 270.882 345.343 271.004 345.002 271.172C344.792 271.271 344.592 271.389 344.404 271.523C344.198 271.657 344.066 271.803 344.101 271.918C344.137 272.034 344.119 271.976 344.213 271.983C344.315 271.964 344.415 271.934 344.509 271.892C344.729 271.824 344.948 271.757 345.155 271.694C345.511 271.549 345.854 271.374 346.18 271.169C346.486 270.949 346.807 270.747 347.139 270.567Z" fill="#263238"/>
<path d="M347.159 270.777C347.169 270.809 346.717 270.716 346.167 270.28C345.85 270.024 345.581 269.714 345.372 269.364C345.244 269.157 345.139 268.938 345.058 268.708C344.99 268.567 344.96 268.41 344.97 268.253C344.98 268.097 345.03 267.945 345.115 267.813C345.178 267.737 345.262 267.682 345.356 267.653C345.45 267.624 345.55 267.624 345.645 267.651C345.781 267.691 345.91 267.754 346.026 267.836C346.234 267.971 346.42 268.137 346.579 268.327C346.845 268.65 347.027 269.033 347.111 269.443C347.237 270.107 347.043 270.56 347.01 270.542C346.98 270.212 346.934 269.884 346.871 269.559C346.763 269.206 346.58 268.881 346.332 268.606C346.189 268.446 346.023 268.308 345.84 268.195C345.644 268.065 345.443 268.007 345.405 268.089C345.368 268.172 345.35 268.262 345.352 268.352C345.354 268.443 345.376 268.532 345.417 268.613C345.481 268.829 345.571 269.038 345.685 269.233C345.865 269.563 346.093 269.865 346.361 270.129C346.811 270.539 347.184 270.72 347.159 270.777Z" fill="#263238"/>
<path d="M296.479 245.367L330.778 274.549L340.831 262.085L306.088 224.909" fill="#263238"/>
<path d="M295.92 236.833C296.028 236.842 295.784 238.532 296.051 240.58C296.318 242.627 296.949 244.204 296.849 244.249C295.634 241.968 295.3 239.321 295.912 236.807L295.92 236.833Z" fill="#455A64"/>
<path d="M293.569 237.664C293.666 237.634 294.057 239.257 294.911 241.103C295.766 242.95 296.71 244.305 296.617 244.368C294.944 242.493 293.88 240.157 293.563 237.666L293.569 237.664Z" fill="#455A64"/>
<path d="M206.01 272.944L188.607 272.925C176.865 303.128 186.332 329.466 222.066 335.831L233.367 311.447L206.01 272.944Z" fill="#263238"/>
<path d="M206.377 268.588C198.006 277.622 196.754 291.629 201.73 303.455C207.186 316.413 220.057 326.736 237.435 325.357L340.163 270.095C344.403 267.814 348.123 264.681 351.088 260.896C354.052 257.11 356.197 252.754 357.385 248.104C358.574 243.454 358.78 238.611 357.992 233.882C357.204 229.153 355.438 224.641 352.806 220.632C347.919 213.188 340.335 207.913 331.631 205.905C322.928 203.897 313.774 205.309 306.072 209.85L206.377 268.588Z" fill="#E0E0E0"/>
<path d="M206.376 268.589L207.31 268.021L210.074 266.374L220.723 260.058L259.939 236.88L287.02 220.861L302.12 211.952L306.038 209.649L308.086 208.572C308.426 208.391 308.764 208.203 309.114 208.033L310.194 207.597C310.919 207.312 311.633 206.995 312.364 206.729L314.622 206.038C315.378 205.81 316.149 205.63 316.928 205.5L318.099 205.268L318.686 205.159L319.281 205.096L321.673 204.863C322.474 204.807 323.28 204.834 324.089 204.826C324.492 204.829 324.898 204.817 325.305 204.833L326.515 204.933L327.728 205.046C328.137 205.066 328.543 205.115 328.945 205.194L331.359 205.635C332.166 205.803 332.951 206.061 333.759 206.305C334.155 206.423 334.533 206.525 334.943 206.646L336.103 207.092L337.272 207.542L337.855 207.764L338.413 208.043C344.637 210.916 349.875 215.546 353.479 221.361C357.212 227.395 358.992 234.432 358.577 241.518C358.137 248.805 355.421 255.779 350.808 261.462C348.862 263.861 346.6 265.988 344.084 267.785C341.593 269.608 338.826 270.919 336.187 272.374L320.431 280.844L290.362 297.062L237.527 325.456L237.469 325.473C234.395 325.679 231.308 325.547 228.265 325.08C222.615 324.129 217.302 321.77 212.82 318.223C210.791 316.594 208.932 314.767 207.269 312.769C206.867 312.288 206.512 311.772 206.11 311.29C205.728 310.813 205.375 310.314 205.052 309.794C204.72 309.285 204.396 308.78 204.072 308.275L203.218 306.731C202.925 306.23 202.66 305.712 202.426 305.181C202.19 304.663 201.947 304.147 201.713 303.636C201.479 303.125 201.309 302.593 201.109 302.078C200.909 301.564 200.718 301.053 200.567 300.537C199.33 296.788 198.714 292.861 198.744 288.912C198.755 285.751 199.218 282.607 200.12 279.575C200.778 277.345 201.717 275.206 202.914 273.211C203.159 272.812 203.376 272.416 203.605 272.079L204.289 271.131L204.862 270.331L205.38 269.715L206.345 268.605L205.409 269.742L204.894 270.363L204.322 271.171L203.677 272.106C203.45 272.449 203.237 272.838 202.994 273.242C201.814 275.238 200.891 277.374 200.247 279.599C199.355 282.623 198.901 285.757 198.897 288.907C198.882 292.839 199.504 296.746 200.739 300.477C200.896 300.991 201.056 301.512 201.279 302.012C201.503 302.513 201.666 303.046 201.894 303.559C202.122 304.073 202.363 304.582 202.605 305.098C202.839 305.625 203.102 306.138 203.393 306.635C203.675 307.139 203.96 307.656 204.245 308.173C204.53 308.689 204.896 309.168 205.222 309.679C205.546 310.195 205.899 310.692 206.278 311.169C206.651 311.652 207.005 312.162 207.43 312.629C209.086 314.612 210.936 316.425 212.955 318.041C215.134 319.71 217.488 321.14 219.977 322.306C222.64 323.465 225.429 324.313 228.289 324.834C231.31 325.296 234.373 325.423 237.424 325.213L237.373 325.229L290.163 296.757L320.265 280.557L336.02 272.081C338.663 270.618 341.426 269.315 343.874 267.512C346.365 265.738 348.604 263.634 350.527 261.259C355.097 255.628 357.786 248.716 358.217 241.494C358.63 234.48 356.869 227.513 353.173 221.539C349.609 215.779 344.426 211.191 338.264 208.341L337.708 208.069L337.166 207.89L336.015 207.449L334.864 207.007C334.481 206.864 334.087 206.774 333.686 206.665C332.915 206.452 332.13 206.193 331.326 206.032L328.932 205.591C328.534 205.52 328.132 205.469 327.728 205.44L326.525 205.337L325.321 205.228C324.922 205.217 324.523 205.227 324.121 205.23C323.321 205.243 322.519 205.208 321.724 205.261L319.36 205.493L318.77 205.548L318.185 205.664L317.026 205.892C316.253 206.018 315.489 206.193 314.738 206.417L312.505 207.1C311.775 207.366 311.067 207.681 310.356 207.962L309.282 208.396C308.936 208.558 308.598 208.746 308.259 208.927L306.234 209.99L302.281 212.247L287.181 221.134L260.081 237.111L220.806 260.166L210.127 266.456L207.343 268.082L206.376 268.589Z" fill="#263238"/>
<path d="M237.429 325.344L233 362.421C233 362.421 299.076 335.046 285.082 299.71L237.429 325.344Z" fill="#6C63FF"/>
<path d="M254.487 241.685C254.487 241.685 213.034 223.23 175.111 247.958L206.389 268.584L254.487 241.685Z" fill="#6C63FF"/>
<path d="M309.614 208.259C326.809 214.236 347.701 251.796 344.84 266.633C381.104 242.848 379.04 206.277 379.04 206.277C342.091 188.402 309.614 208.259 309.614 208.259Z" fill="#6C63FF"/>
<path d="M212.383 316.676C212.465 316.715 211.076 319.992 209.273 323.994C207.471 327.996 205.934 331.206 205.824 331.17C205.714 331.133 207.124 327.856 208.933 323.852C210.742 319.849 212.298 316.632 212.383 316.676Z" fill="#455A64"/>
<path d="M379.016 206.27C379.016 206.27 378.984 206.442 378.902 206.776L378.529 208.253L377.918 210.661C377.795 211.134 377.662 211.645 377.524 212.186L376.963 213.904C376.565 215.115 376.139 216.468 375.634 217.929L373.743 222.612C373.365 223.43 372.942 224.262 372.531 225.154C372.119 226.045 371.716 226.942 371.23 227.821C370.211 229.609 369.19 231.53 367.889 233.411C365.172 237.591 361.98 241.444 358.376 244.895C356.374 246.824 354.244 248.617 352.002 250.262C350.855 251.126 349.649 251.937 348.485 252.814C347.251 253.665 345.971 254.446 344.649 255.154C334.131 261.094 322.475 267.444 310.229 274.124C285.758 287.489 263.576 299.522 247.505 308.208L228.466 318.498L223.281 321.273L221.925 321.983C221.622 322.146 221.46 322.217 221.46 322.217L221.909 321.953L223.247 321.206L228.401 318.378L247.388 308.012L310.07 273.835C322.291 267.142 333.955 260.796 344.49 254.866C345.797 254.167 347.065 253.399 348.289 252.565C349.475 251.668 350.678 250.871 351.818 250.009C354.053 248.375 356.178 246.596 358.177 244.682C361.773 241.252 364.965 237.425 367.691 233.275C368.988 231.402 370.02 229.492 371.035 227.713C371.561 226.849 371.944 225.91 372.38 225.052C372.816 224.195 373.227 223.346 373.602 222.521L375.514 217.861C376.027 216.404 376.462 215.055 376.877 213.853L377.446 212.14L377.853 210.61L378.496 208.214C378.675 207.576 378.807 207.086 378.899 206.742C378.991 206.397 379.016 206.27 379.016 206.27Z" fill="#263238"/>
<path d="M293.029 295.486C293.029 295.486 292.972 295.461 292.873 295.393L292.435 295.092L290.782 293.912L289.587 293.048C289.162 292.721 288.719 292.337 288.231 291.939C287.278 291.134 286.123 290.265 284.989 289.165L283.166 287.475C282.535 286.888 281.933 286.215 281.285 285.549C279.96 284.241 278.694 282.71 277.33 281.139C271.544 274.115 267.015 266.15 263.939 257.591C263.275 255.609 262.605 253.742 262.157 251.933C261.924 251.034 261.622 250.185 261.467 249.333C261.312 248.481 261.115 247.677 260.95 246.906C260.584 245.367 260.423 243.941 260.221 242.703C260.136 242.082 260.032 241.51 259.973 240.973C259.915 240.436 259.88 239.954 259.843 239.509C259.769 238.646 259.712 237.975 259.666 237.456C259.65 237.243 259.639 237.07 259.63 236.925C259.621 236.781 259.624 236.745 259.633 236.749C259.655 236.805 259.672 236.863 259.686 236.922C259.725 237.051 259.725 237.234 259.753 237.443L259.995 239.477C260.045 239.918 260.095 240.402 260.151 240.932C260.208 241.463 260.334 242.036 260.433 242.659C260.655 243.891 260.834 245.305 261.21 246.833C261.382 247.603 261.559 248.413 261.751 249.246C261.943 250.08 262.213 250.939 262.46 251.84C262.919 253.638 263.581 255.501 264.262 257.471C267.346 265.985 271.848 273.918 277.579 280.937C278.931 282.518 280.184 284.052 281.495 285.359C282.143 286.024 282.736 286.693 283.356 287.29L285.16 288.986C286.277 290.099 287.408 290.982 288.356 291.795C288.84 292.202 289.302 292.58 289.696 292.923C290.091 293.266 290.513 293.537 290.864 293.809C291.545 294.303 292.09 294.748 292.484 295.042L292.895 295.373C292.944 295.405 292.989 295.443 293.029 295.486Z" fill="#263238"/>
<path d="M251.987 271.206L187.701 306.345C187.701 306.345 189.441 313.112 191.141 312.648C192.562 312.262 240.766 287.485 256.399 279.439C256.999 279.13 257.526 278.695 257.942 278.164C258.358 277.633 258.654 277.019 258.809 276.363C258.964 275.708 258.975 275.027 258.84 274.368C258.705 273.709 258.428 273.088 258.029 272.546C257.355 271.635 256.372 270.997 255.262 270.751C254.152 270.505 252.989 270.666 251.987 271.206Z" fill="#6C63FF"/>
<path d="M318.996 243.793C316.442 235.41 307.028 230.85 297.969 233.61C288.909 236.37 283.636 245.404 286.189 253.787C288.743 262.171 298.158 266.73 307.217 263.97C316.276 261.211 321.55 252.177 318.996 243.793Z" fill="#FAFAFA"/>
<path d="M319.005 243.796C318.972 243.712 318.945 243.626 318.926 243.539C318.869 243.352 318.755 243.12 318.64 242.811C318.589 242.644 318.534 242.464 318.432 242.271C318.33 242.077 318.233 241.875 318.119 241.664C318.005 241.453 317.886 241.201 317.758 240.945C317.63 240.689 317.434 240.44 317.258 240.164C316.867 239.564 316.435 238.992 315.964 238.452C313.978 236.244 311.424 234.618 308.576 233.751C306.138 233 303.564 232.79 301.034 233.137C300.342 233.228 299.657 233.362 298.983 233.54C298.641 233.645 298.285 233.705 297.945 233.816L296.922 234.185L296.4 234.345L295.892 234.578L294.881 235.056L293.906 235.629L293.408 235.915L292.947 236.253C290.279 238.091 288.197 240.656 286.951 243.639C285.586 246.84 285.396 250.414 286.413 253.735C287.429 257.056 289.588 259.911 292.51 261.8C295.207 263.58 298.362 264.548 301.6 264.588L302.178 264.608L302.753 264.573L303.882 264.501L304.987 264.332L305.533 264.249L306.062 264.087L307.117 263.82C307.459 263.715 307.801 263.611 308.127 263.476C308.785 263.247 309.428 262.975 310.051 262.662C312.329 261.543 314.332 259.936 315.916 257.957C318.328 255.113 319.621 251.492 319.552 247.773C319.537 247.448 319.549 247.142 319.525 246.854C319.5 246.567 319.46 246.298 319.426 246.048C319.392 245.799 319.372 245.573 319.346 245.37C319.319 245.168 319.228 244.985 319.217 244.813C319.146 244.488 319.089 244.231 319.045 244.043C319.024 243.957 319.01 243.871 319.001 243.783C319.034 243.866 319.06 243.952 319.079 244.04L319.307 244.785C319.359 244.952 319.416 245.138 319.479 245.344C319.542 245.549 319.544 245.788 319.572 246.018C319.6 246.248 319.646 246.536 319.692 246.824C319.738 247.112 319.713 247.422 319.73 247.754C319.754 248.483 319.725 249.213 319.643 249.938C319.532 250.802 319.352 251.656 319.105 252.491C318.492 254.53 317.491 256.433 316.155 258.095C314.541 260.121 312.497 261.767 310.171 262.913C309.537 263.231 308.884 263.509 308.216 263.744C307.874 263.848 307.539 264 307.189 264.1L306.123 264.377L305.588 264.541L305.028 264.628L303.904 264.804L302.756 264.881L302.174 264.919L301.59 264.901C298.284 264.869 295.06 263.887 292.305 262.073C289.313 260.145 287.102 257.226 286.062 253.828C285.021 250.431 285.219 246.774 286.619 243.501C287.911 240.462 290.053 237.854 292.789 235.992L293.265 235.656L293.768 235.362L294.769 234.781L295.799 234.297L296.307 234.065L296.842 233.901L297.887 233.532C298.235 233.425 298.593 233.35 298.939 233.259C299.625 233.078 300.322 232.944 301.026 232.859C303.572 232.512 306.161 232.729 308.61 233.495C310.646 234.128 312.539 235.15 314.182 236.503C315.436 237.508 316.506 238.72 317.347 240.087C317.517 240.366 317.687 240.623 317.83 240.881C317.973 241.14 318.077 241.389 318.182 241.616C318.287 241.844 318.393 242.051 318.482 242.227C318.571 242.404 318.6 242.613 318.651 242.78C318.75 243.101 318.824 243.345 318.881 243.531C318.93 243.616 318.971 243.704 319.005 243.796Z" fill="#263238"/>
<path d="M125.423 363.022C123.782 364.438 121.589 364.997 119.461 365.402C117.334 365.808 115.144 366.099 113.233 367.119C110.281 368.726 108.222 371.914 104.964 372.728C100.447 373.858 96.3356 369.904 91.7726 369.038C86.2109 367.93 80.295 371.498 75.0016 367.947C73.4283 366.89 72.2064 365.39 71.4904 363.638C70.7745 361.886 70.5966 359.961 70.9793 358.106C72.2374 352.233 78.4345 349.422 84.0203 349.687C88.8241 349.909 93.3284 351.966 97.655 354.042C99.1281 354.75 100.603 355.465 102.103 356.123C104.499 357.169 107.084 357.719 109.702 357.737C112.32 357.756 114.916 357.244 117.331 356.232C119.667 355.245 122.292 355.197 124.658 356.097C125.296 356.346 125.862 356.75 126.303 357.272C126.749 357.768 127.061 358.368 127.211 359.018C127.538 360.639 126.753 361.877 125.423 363.022Z" fill="#6C63FF"/>
<g opacity="0.8">
<path d="M125.422 363.022C123.781 364.438 121.588 364.997 119.46 365.402C117.333 365.808 115.143 366.099 113.232 367.119C110.28 368.726 108.221 371.914 104.963 372.728C100.446 373.858 96.3347 369.904 91.7716 369.038C86.2099 367.93 80.294 371.498 75.0006 367.947C73.4274 366.89 72.2054 365.39 71.4895 363.638C70.7735 361.886 70.5956 359.961 70.9784 358.106C72.2364 352.233 78.4335 349.422 84.0193 349.687C88.8231 349.909 93.3274 351.966 97.6541 354.042C99.1272 354.75 100.602 355.465 102.102 356.123C104.498 357.169 107.083 357.719 109.701 357.737C112.319 357.756 114.915 357.244 117.33 356.232C119.666 355.245 122.291 355.197 124.657 356.097C125.295 356.346 125.861 356.75 126.302 357.272C126.748 357.768 127.06 358.368 127.21 359.018C127.537 360.639 126.752 361.877 125.422 363.022Z" fill="white"/>
</g>
<path d="M51.7566 383.242C49.7836 381.408 45.8963 382.542 43.9065 384.387C41.9167 386.233 40.9902 388.878 40.0456 391.394C39.101 393.91 37.9617 396.529 35.7525 398.118C33.3996 399.815 30.3227 399.978 27.5539 400.846C24.7851 401.715 21.9445 404.032 22.346 406.888C22.4556 407.718 22.7594 408.509 23.233 409.199C23.7065 409.889 24.3366 410.458 25.0722 410.859C26.5052 411.564 28.0554 412.004 29.6474 412.157C33.7932 412.507 37.9698 412.067 41.9547 410.862C44.4958 410.036 46.8144 408.64 48.7319 406.783C50.6494 404.925 52.1148 402.655 53.0154 400.148C54.7677 395.129 56.6176 386.763 51.6857 383.263" fill="#6C63FF"/>
<g opacity="0.8">
<path d="M51.7566 383.242C49.7836 381.408 45.8963 382.542 43.9065 384.387C41.9167 386.233 40.9902 388.878 40.0456 391.394C39.101 393.91 37.9617 396.529 35.7525 398.118C33.3996 399.815 30.3227 399.978 27.5539 400.846C24.7851 401.715 21.9445 404.032 22.346 406.888C22.4556 407.718 22.7594 408.509 23.233 409.199C23.7065 409.889 24.3366 410.458 25.0722 410.859C26.5052 411.564 28.0554 412.004 29.6474 412.157C33.7932 412.507 37.9698 412.067 41.9547 410.862C44.4958 410.036 46.8144 408.64 48.7319 406.783C50.6494 404.925 52.1148 402.655 53.0154 400.148C54.7677 395.129 56.6176 386.763 51.6857 383.263" fill="white"/>
</g>
<path d="M316.475 302.873L307.734 292.6L317.217 284.547L325.564 298.235L316.94 302.731" fill="#FFBE9D"/>
<path d="M324.969 296.31L331.371 305.697C331.371 305.697 343.106 302.371 344.457 303.995L326.564 317.012L316.033 302.783L324.969 296.31Z" fill="#6C63FF"/>
<g opacity="0.6">
<path d="M325.254 308.954C325.121 309.132 325.057 309.353 325.077 309.574C325.096 309.795 325.197 310 325.359 310.152C325.531 310.291 325.749 310.36 325.97 310.343C326.191 310.326 326.397 310.226 326.546 310.062C326.688 309.875 326.755 309.641 326.734 309.408C326.714 309.174 326.607 308.956 326.434 308.797C326.24 308.668 326.003 308.621 325.774 308.663C325.544 308.706 325.34 308.836 325.205 309.025" fill="white"/>
</g>
<g opacity="0.6">
<path d="M326.563 317.013L325.561 315.535L343.082 303.609C343.082 303.609 344.132 303.372 344.45 303.998L326.563 317.013Z" fill="white"/>
</g>
<path d="M331.571 305.404C331.601 305.501 331.22 305.849 330.998 306.437C330.776 307.025 330.807 307.564 330.701 307.589C330.596 307.614 330.356 306.992 330.647 306.305C330.938 305.619 331.529 305.312 331.571 305.404Z" fill="#263238"/>
<path d="M334.006 304.807C334.085 304.881 333.818 305.3 333.792 305.884C333.766 306.468 333.96 306.915 333.873 306.976C333.786 307.038 333.364 306.584 333.411 305.86C333.457 305.136 333.946 304.727 334.006 304.807Z" fill="#263238"/>
<path d="M336.704 306.264C336.636 306.341 336.199 305.997 336.073 305.354C335.946 304.711 336.223 304.233 336.308 304.277C336.392 304.322 336.336 304.761 336.446 305.282C336.556 305.803 336.787 306.189 336.704 306.264Z" fill="#263238"/>
<path d="M329.877 303.422C329.908 303.524 329.411 303.698 328.939 304.095C328.468 304.492 328.203 304.918 328.1 304.879C327.996 304.841 328.143 304.261 328.702 303.802C329.26 303.344 329.868 303.326 329.877 303.422Z" fill="#263238"/>
<path d="M328.556 301.55C328.321 301.845 328.009 302.07 327.653 302.198C327.289 302.374 326.906 302.508 326.512 302.597C326.277 302.645 326.04 302.678 325.801 302.695C325.659 302.716 325.515 302.713 325.375 302.685C325.272 302.665 325.18 302.612 325.111 302.534C325.042 302.456 325.002 302.357 324.995 302.253C324.996 302.16 325.018 302.068 325.06 301.985C325.102 301.902 325.162 301.829 325.236 301.772C325.349 301.692 325.471 301.626 325.6 301.576C325.826 301.486 326.059 301.415 326.297 301.363C326.698 301.278 327.111 301.256 327.519 301.298C328.247 301.37 328.593 301.602 328.577 301.642C328.561 301.682 328.154 301.574 327.501 301.563C327.123 301.558 326.745 301.603 326.378 301.697C326.158 301.746 325.942 301.812 325.732 301.894C325.5 301.965 325.343 302.098 325.357 302.213C325.371 302.328 325.375 302.271 325.455 302.302C325.556 302.318 325.659 302.319 325.76 302.307C325.989 302.297 326.217 302.272 326.443 302.232C326.82 302.165 327.191 302.063 327.549 301.928C327.876 301.78 328.212 301.654 328.556 301.55Z" fill="#263238"/>
<path d="M328.536 301.759C328.536 301.759 328.109 301.609 327.668 301.07C327.409 300.753 327.208 300.394 327.075 300.008C326.997 299.777 326.941 299.541 326.908 299.3C326.868 299.148 326.87 298.988 326.913 298.836C326.956 298.685 327.038 298.548 327.152 298.438C327.231 298.381 327.325 298.349 327.423 298.344C327.52 298.339 327.617 298.362 327.701 298.411C327.825 298.482 327.937 298.57 328.036 298.674C328.206 298.842 328.351 299.034 328.465 299.245C328.664 299.611 328.766 300.023 328.76 300.44C328.744 301.148 328.457 301.524 328.429 301.504C328.469 301.154 328.491 300.803 328.495 300.451C328.464 300.085 328.355 299.731 328.177 299.41C328.069 299.225 327.936 299.055 327.782 298.906C327.618 298.738 327.433 298.64 327.375 298.707C327.322 298.782 327.286 298.867 327.27 298.957C327.254 299.047 327.257 299.14 327.281 299.228C327.304 299.452 327.349 299.674 327.413 299.89C327.525 300.248 327.686 300.589 327.892 300.903C328.239 301.457 328.571 301.714 328.536 301.759Z" fill="#263238"/>
<path d="M234.752 222.479C234.752 222.479 232.161 247.942 239.873 250.401C247.584 252.859 284.153 266.149 284.153 266.149L311.737 302.097L324.15 291.928L297.779 248.044L259.679 230.283L234.752 222.479Z" fill="#263238"/>
<path d="M285.455 257.981C285.559 258.019 284.975 259.617 284.813 261.69C284.65 263.764 284.94 265.425 284.832 265.443C284.123 262.965 284.344 260.312 285.455 257.981Z" fill="#455A64"/>
<path d="M282.995 258.313C283.091 258.283 283.141 259.968 283.593 261.951C284.045 263.935 284.669 265.465 284.589 265.504C283.923 264.442 283.469 263.262 283.25 262.028C282.921 260.819 282.834 259.557 282.995 258.313Z" fill="#455A64"/>
<path d="M312.984 301.055C312.927 301.005 312.876 300.947 312.833 300.883C312.723 300.755 312.585 300.58 312.403 300.355C312.016 299.876 311.475 299.191 310.775 298.31C309.372 296.519 307.313 293.917 304.842 290.641C302.371 287.364 299.37 283.442 296.143 278.964C295.335 277.848 294.521 276.685 293.705 275.494C292.888 274.304 292.089 273.052 291.121 271.873C289.217 269.526 287.09 267.212 284.828 264.897L284.887 264.929C282.882 264.074 280.768 263.183 278.606 262.299C276.919 261.607 275.251 260.93 273.589 260.321L268.664 258.527C265.437 257.344 262.31 256.214 259.319 255.226C256.327 254.238 253.433 253.452 250.753 252.607C248.245 251.873 245.809 250.914 243.475 249.741C242.453 249.222 241.496 248.586 240.622 247.846C239.85 247.172 239.189 246.381 238.662 245.502C237.845 244.085 237.341 242.51 237.184 240.882C237.08 239.861 237.068 238.833 237.147 237.809C237.167 237.459 237.206 237.194 237.221 237.014C237.227 236.921 237.241 236.83 237.264 236.74C237.264 236.74 237.292 236.83 237.257 237.016C237.222 237.203 237.224 237.462 237.217 237.809C237.17 238.83 237.205 239.853 237.321 240.868C237.502 242.469 238.017 244.013 238.836 245.4C239.357 246.257 240.009 247.027 240.769 247.682C241.638 248.399 242.585 249.016 243.591 249.523C245.921 250.671 248.349 251.611 250.846 252.333C253.526 253.156 256.436 253.924 259.435 254.916C262.435 255.909 265.562 257.017 268.796 258.198L273.721 259.993C275.398 260.604 277.066 261.281 278.751 261.966C280.915 262.857 283.03 263.748 285.036 264.609L285.046 264.641C287.312 266.969 289.44 269.289 291.351 271.655C292.273 272.82 293.133 274.031 293.93 275.285C294.741 276.484 295.554 277.64 296.349 278.76C299.557 283.244 302.512 287.181 304.98 290.472L310.833 298.201C311.51 299.096 312.029 299.802 312.411 300.289L312.821 300.866C312.884 300.921 312.939 300.985 312.984 301.055Z" fill="#455A64"/>
<path d="M234.73 222.49L278.072 209.069L282.615 223.735L267.355 234.384L234.73 222.49Z" fill="#263238"/>
<path d="M235.024 222.607C233.5 223.079 232.577 224.606 232.87 226.17L232.947 226.578C233.292 228.422 235.166 229.578 236.975 229.063L280.354 216.719C281.917 216.274 282.877 214.726 282.578 213.133L282.307 211.686C281.955 209.815 280.031 208.659 278.207 209.224L235.024 222.607Z" fill="#2E353A"/>
<path opacity="0.2" d="M235.024 222.607C233.5 223.079 232.577 224.606 232.87 226.17L232.947 226.578C233.292 228.422 235.166 229.578 236.975 229.063L280.354 216.719C281.917 216.274 282.877 214.726 282.578 213.133L282.307 211.686C281.955 209.815 280.031 208.659 278.207 209.224L235.024 222.607Z" fill="black"/>
<path d="M250.856 225.162L249.262 218.706C249.111 218.095 248.494 217.727 247.885 217.886C247.275 218.044 246.904 218.668 247.055 219.28L248.648 225.736C248.799 226.347 249.416 226.715 250.025 226.556C250.635 226.398 251.006 225.774 250.856 225.162Z" fill="#2E353A"/>
<path d="M267.317 212.709L260.688 214.696C259.85 214.948 259.375 215.831 259.626 216.669L260.903 220.929C261.154 221.767 262.037 222.243 262.875 221.991L269.504 220.004C270.342 219.753 270.817 218.87 270.566 218.032L269.289 213.771C269.038 212.933 268.155 212.458 267.317 212.709Z" fill="#BABABA"/>
<path d="M266.963 213.192L261.25 214.904C260.412 215.156 259.936 216.039 260.187 216.877L261.257 220.446C261.508 221.284 262.391 221.759 263.229 221.508L268.942 219.795C269.78 219.544 270.256 218.661 270.005 217.823L268.935 214.254C268.684 213.416 267.801 212.94 266.963 213.192Z" fill="white"/>
<path d="M277.903 217.206L276.174 210.202C276.023 209.591 275.406 209.224 274.797 209.382C274.187 209.54 273.816 210.165 273.967 210.776L275.696 217.78C275.847 218.392 276.463 218.759 277.073 218.6C277.682 218.442 278.054 217.818 277.903 217.206Z" fill="#2E353A"/>
<path d="M249.913 145.637C253.599 150.832 257.35 155.812 261.28 160.785C265.21 165.758 269.177 170.645 273.484 175.491L275.195 177.355C276.271 178.528 277.571 179.476 279.018 180.144C281.322 181.168 283.842 181.616 286.362 181.451C290.107 181.188 293.785 180.306 297.243 178.84C303.409 176.283 309.222 172.945 314.538 168.908L310.992 162.965L306.759 164.626C305.328 165.177 303.877 165.631 302.465 166.167C299.679 167.154 296.843 167.996 293.969 168.689C291.486 169.352 288.921 169.653 286.354 169.583C285.721 169.588 285.099 169.423 284.552 169.106C284.536 169.031 284.649 169.085 284.649 169.085L283.335 167.39C279.687 162.523 275.989 157.431 272.337 152.441C268.684 147.452 264.933 142.372 261.187 137.414L249.913 145.637Z" fill="#FDBBB5"/>
<path d="M322.03 166.314C322.764 165.973 323.423 165.489 323.966 164.89C325.804 162.243 323.653 158.929 320.987 157.118C320.881 157.041 317.972 155.351 317.854 155.276C315.06 153.65 314.276 156.232 312.649 159.023L309.372 164.598L313.211 169.569C315.614 169.031 317.954 168.241 320.192 167.212C320.716 166.985 321.356 166.675 322.03 166.314Z" fill="#FDBBB5"/>
<path d="M267.194 139.487C273.812 146.019 275.16 156.3 275.16 156.3L263.802 161.504C263.802 161.504 247.512 150.616 248.466 143.357C249.535 135.344 260.186 132.56 267.194 139.487Z" fill="#263238"/>
<path opacity="0.2" d="M263.8 161.503L271.021 158.197C268.085 153.363 264.578 148.899 260.577 144.9C254.635 139.251 251.001 138.046 247.842 140.715C248.73 150.178 263.8 161.503 263.8 161.503Z" fill="black"/>
<path d="M224.964 138.398C223.768 138.788 211.399 145.191 217.107 156.46C240.207 200.489 235.03 199.075 234.287 222.31L277.569 208.861C277.569 208.861 267.861 180.736 268.634 174.302C269.997 163.469 267.999 156.227 262.174 146.944C255.745 136.698 253.543 134.022 253.543 134.022C250.923 134.008 244.853 133.818 238.511 134.597C236.162 134.885 235.163 138.629 232.901 139.241C230.204 139.97 227.035 137.028 224.964 138.398Z" fill="#263238"/>
<path opacity="0.2" d="M234.439 176.109C232.518 170.504 218.166 150.823 219.481 147.743C220.789 146.637 227.689 146.035 232.341 149.39C245.209 167.416 234.439 176.109 234.439 176.109Z" fill="black"/>
<path d="M217.612 151.045C220.101 157.902 234.57 186.433 236.923 189.533C237.251 189.954 237.582 190.385 237.955 190.807C238.329 191.229 238.693 191.664 239.138 192.104L239.805 192.786C240.113 193.066 240.426 193.366 240.736 193.601C241.329 194.077 241.95 194.516 242.597 194.916C244.752 196.154 247.1 197.023 249.545 197.487C253.501 198.244 257.538 198.504 261.562 198.259C268.969 197.863 276.309 196.623 283.438 194.563L282.177 186.999L277.042 187.009C275.321 187.007 273.6 186.949 271.899 186.931C268.506 186.838 265.104 186.702 261.857 186.352C258.794 186.119 253.936 185.855 251 185.023C249.987 184.718 249.033 184.247 248.177 183.628C248.082 183.551 247.996 183.465 247.918 183.371C247.907 183.344 247.901 183.315 247.9 183.285L247.671 183.011C247.486 182.783 247.31 182.542 247.144 182.298C246.978 182.054 232.029 151.691 229.518 145.399L217.612 151.045Z" fill="#FDBBB5"/>
<path d="M281.03 187.937C282.139 185.685 283.511 183.571 285.115 181.638C285.83 180.737 286.772 180.042 287.845 179.625C291.203 178.326 294.755 176.984 296.275 183.315C296.31 183.476 297.714 185.99 297.758 186.137C298.822 189.566 295.571 190.842 292.13 191.914L282.907 194.616L281.03 187.937Z" fill="#FDBBB5"/>
<path d="M235.515 147.038C241.167 157.052 237.161 157.8 238.991 164.264L226.526 170.436C226.526 170.436 217.959 165.959 215.184 158.515C214.528 156.657 214.321 154.67 214.58 152.714C214.839 150.759 215.556 148.891 216.673 147.261C217.79 145.631 219.276 144.286 221.01 143.335C222.745 142.383 224.678 141.852 226.654 141.785C228.485 141.708 230.298 142.164 231.871 143.097C233.444 144.029 234.71 145.399 235.515 147.038Z" fill="#263238"/>
<path d="M236.443 161.879L232.613 163.673L233.129 164.771L236.958 162.977L236.443 161.879Z" fill="#6C63FF"/>
<path d="M230.495 164.832L226.57 167.173L227.194 168.214L231.118 165.873L230.495 164.832Z" fill="#6C63FF"/>
<path d="M275.613 154.489L272.163 156.084L272.622 157.075L276.072 155.48L275.613 154.489Z" fill="#6C63FF"/>
<path d="M320.158 163.025C319.112 164.948 318.768 167.172 319.186 169.316C319.603 171.459 320.757 173.39 322.447 174.775L322.79 175.058L323.197 176.919L263.273 190.108L259.763 174.064L319.687 160.875L320.158 163.025Z" fill="#6C63FF"/>
<path opacity="0.1" d="M320.16 163.032C319.114 164.954 318.77 167.177 319.187 169.32C319.605 171.463 320.757 173.392 322.448 174.776L322.791 175.059L323.197 176.919L296.929 182.702L293.421 166.666L319.69 160.884L320.16 163.032Z" fill="black"/>
<path d="M322.427 174.782L322.77 175.065L299.365 180.217L296.733 168.189L320.16 163.032C319.114 164.954 318.771 167.177 319.188 169.32C319.606 171.463 320.758 173.392 322.449 174.777L322.427 174.782Z" fill="#263238"/>
<path opacity="0.9" d="M322.427 174.782L322.77 175.065L299.365 180.217L296.733 168.189L320.16 163.032C319.114 164.954 318.771 167.177 319.188 169.32C319.606 171.463 320.758 173.392 322.449 174.777L322.427 174.782Z" fill="white"/>
<path d="M293.149 175.561C293.288 176.195 293.235 176.856 292.997 177.461C292.758 178.066 292.346 178.588 291.811 178.96C291.276 179.332 290.643 179.538 289.992 179.552C289.341 179.566 288.701 179.386 288.152 179.037C287.604 178.688 287.173 178.184 286.913 177.589C286.653 176.994 286.575 176.336 286.691 175.696C286.806 175.057 287.109 174.465 287.561 173.996C288.013 173.527 288.594 173.202 289.23 173.062C290.084 172.874 290.976 173.032 291.711 173.501C292.446 173.969 292.963 174.71 293.149 175.561Z" fill="white"/>
<path d="M292.419 175.721C292.528 176.218 292.486 176.736 292.3 177.21C292.113 177.684 291.79 178.093 291.371 178.384C290.952 178.676 290.456 178.837 289.946 178.848C289.436 178.858 288.935 178.718 288.505 178.444C288.076 178.171 287.738 177.776 287.534 177.31C287.33 176.844 287.27 176.328 287.36 175.827C287.45 175.326 287.688 174.863 288.042 174.496C288.396 174.128 288.851 173.874 289.349 173.764C290.018 173.617 290.717 173.74 291.293 174.107C291.868 174.474 292.274 175.055 292.419 175.721Z" fill="#263238"/>
<path d="M276.131 174.169L262.154 177.245L264.098 186.129L278.074 183.052L276.131 174.169Z" fill="white"/>
<path d="M282.807 172.704L276.791 174.028L278.734 182.91L284.75 181.585L282.807 172.704Z" fill="white"/>
<path d="M299.036 178.715L298.802 177.647C299.273 177.611 299.73 177.475 300.144 177.248C300.557 177.021 300.917 176.708 301.2 176.33C301.482 175.953 301.68 175.519 301.779 175.059C301.879 174.6 301.879 174.124 301.779 173.665C301.678 173.205 301.48 172.773 301.197 172.398C300.914 172.022 300.554 171.711 300.14 171.487C299.726 171.263 299.269 171.13 298.798 171.097C298.328 171.065 297.856 171.133 297.414 171.299L297.18 170.23C297.767 170.023 298.39 169.943 299.01 169.995C299.629 170.046 300.23 170.229 300.773 170.53C301.316 170.83 301.788 171.243 302.159 171.74C302.529 172.237 302.789 172.808 302.921 173.413C303.054 174.019 303.056 174.646 302.927 175.252C302.798 175.859 302.541 176.433 302.174 176.934C301.807 177.435 301.337 177.853 300.796 178.16C300.255 178.467 299.655 178.657 299.036 178.715Z" fill="#263238"/>
<path d="M318.966 166.973L297.497 171.694L297.614 172.23L319.083 167.509L318.966 166.973Z" fill="white"/>
<path d="M319.106 167.603L297.637 172.324L297.754 172.86L319.223 168.139L319.106 167.603Z" fill="white"/>
<path d="M319.241 168.223L297.771 172.944L297.889 173.48L319.358 168.759L319.241 168.223Z" fill="white"/>
<path d="M319.378 168.853L297.909 173.574L298.027 174.11L319.496 169.389L319.378 168.853Z" fill="white"/>
<path d="M319.517 169.483L298.048 174.205L298.165 174.741L319.634 170.019L319.517 169.483Z" fill="white"/>
<path d="M319.655 170.114L298.186 174.835L298.303 175.371L319.772 170.65L319.655 170.114Z" fill="white"/>
<path d="M319.794 170.744L298.325 175.465L298.443 176.001L319.912 171.28L319.794 170.744Z" fill="white"/>
<path d="M319.932 171.375L298.463 176.096L298.58 176.632L320.049 171.911L319.932 171.375Z" fill="white"/>
<path d="M320.068 171.994L298.599 176.715L298.716 177.251L320.185 172.53L320.068 171.994Z" fill="white"/>
<path d="M323.118 145.274C322.072 147.197 321.728 149.421 322.146 151.565C322.563 153.709 323.716 155.639 325.407 157.024L325.75 157.307L326.157 159.168L266.233 172.357L262.711 156.26L322.636 143.071L323.118 145.274Z" fill="#6C63FF"/>
<path opacity="0.1" d="M323.122 145.282C322.075 147.203 321.732 149.426 322.149 151.569C322.567 153.712 323.719 155.641 325.409 157.025L325.752 157.308L326.159 159.168L299.891 164.951L296.371 148.862L322.64 143.079L323.122 145.282Z" fill="black"/>
<path d="M325.409 157.026L325.752 157.309L302.325 162.466L299.694 150.438L323.121 145.281C322.075 147.203 321.731 149.426 322.149 151.569C322.566 153.712 323.719 155.641 325.409 157.026Z" fill="#263238"/>
<path opacity="0.9" d="M325.409 157.026L325.752 157.309L302.325 162.466L299.694 150.438L323.121 145.281C322.075 147.203 321.731 149.426 322.149 151.569C322.566 153.712 323.719 155.641 325.409 157.026Z" fill="white"/>
<path d="M296.108 157.811C296.247 158.445 296.194 159.106 295.956 159.711C295.717 160.316 295.305 160.838 294.77 161.21C294.235 161.582 293.602 161.788 292.951 161.802C292.3 161.816 291.66 161.636 291.111 161.287C290.563 160.938 290.132 160.434 289.872 159.839C289.612 159.244 289.534 158.586 289.65 157.946C289.765 157.307 290.068 156.715 290.52 156.246C290.972 155.777 291.553 155.452 292.189 155.312C293.043 155.124 293.935 155.282 294.67 155.751C295.405 156.219 295.922 156.96 296.108 157.811Z" fill="white"/>
<path d="M295.378 157.971C295.487 158.468 295.445 158.986 295.259 159.46C295.072 159.934 294.749 160.343 294.33 160.634C293.911 160.926 293.415 161.087 292.905 161.098C292.395 161.108 291.894 160.968 291.464 160.694C291.035 160.421 290.697 160.026 290.493 159.56C290.289 159.094 290.229 158.578 290.319 158.077C290.409 157.576 290.647 157.113 291.001 156.746C291.355 156.378 291.81 156.124 292.308 156.014C292.977 155.867 293.676 155.99 294.252 156.357C294.827 156.724 295.233 157.305 295.378 157.971Z" fill="#263238"/>
<path d="M279.091 156.407L265.114 159.484L267.058 168.368L281.034 165.291L279.091 156.407Z" fill="white"/>
<path d="M285.766 154.943L279.75 156.267L281.693 165.148L287.709 163.824L285.766 154.943Z" fill="white"/>
<path d="M301.996 160.964L301.762 159.895C302.505 159.618 303.123 159.082 303.503 158.388C303.883 157.693 303.999 156.885 303.83 156.113C303.662 155.342 303.219 154.657 302.584 154.186C301.949 153.714 301.164 153.488 300.373 153.548L300.14 152.479C301.206 152.378 302.272 152.669 303.136 153.298C304.001 153.927 304.604 154.85 304.832 155.893C305.06 156.936 304.898 158.028 304.375 158.962C303.853 159.896 303.007 160.608 301.996 160.964Z" fill="#263238"/>
<path d="M321.927 149.222L300.458 153.943L300.575 154.479L322.044 149.758L321.927 149.222Z" fill="white"/>
<path d="M322.065 149.853L300.596 154.574L300.713 155.11L322.182 150.389L322.065 149.853Z" fill="white"/>
<path d="M322.201 150.472L300.732 155.193L300.85 155.729L322.319 151.008L322.201 150.472Z" fill="white"/>
<path d="M322.339 151.103L300.87 155.824L300.987 156.36L322.457 151.639L322.339 151.103Z" fill="white"/>
<path d="M322.477 151.733L301.008 156.454L301.125 156.99L322.594 152.269L322.477 151.733Z" fill="white"/>
<path d="M322.615 152.363L301.146 157.084L301.263 157.62L322.732 152.899L322.615 152.363Z" fill="white"/>
<path d="M322.753 152.993L301.284 157.714L301.402 158.25L322.871 153.529L322.753 152.993Z" fill="white"/>
<path d="M322.888 153.613L301.419 158.334L301.536 158.87L323.005 154.149L322.888 153.613Z" fill="white"/>
<path d="M323.028 154.244L301.559 158.965L301.676 159.501L323.145 154.78L323.028 154.244Z" fill="white"/>
<path d="M276.442 75.2674C289.093 74.24 301.538 71.4252 313.404 66.9074C313.764 66.8224 314.101 66.661 314.393 66.4343C314.685 66.2076 314.924 65.9208 315.095 65.5937C315.452 64.5513 314.426 63.6117 313.595 62.8979C312.082 61.5803 310.86 59.9626 310.008 58.1475C309.156 56.3323 308.693 54.3594 308.646 52.3539C301.314 62.6745 290.926 70.4489 278.946 74.5818L276.442 75.2674Z" fill="#6C63FF"/>
<path opacity="0.4" d="M276.442 75.2674C289.093 74.24 301.538 71.4252 313.404 66.9074C313.764 66.8224 314.101 66.661 314.393 66.4343C314.685 66.2076 314.924 65.9208 315.095 65.5937C315.452 64.5513 314.426 63.6117 313.595 62.8979C312.082 61.5803 310.86 59.9626 310.008 58.1475C309.156 56.3323 308.693 54.3594 308.646 52.3539C301.314 62.6745 290.926 70.4489 278.946 74.5818L276.442 75.2674Z" fill="white"/>
<path d="M264.987 155.832L318.583 144.036L315.676 130.751L262.081 142.547L264.987 155.832Z" fill="#6C63FF"/>
<path opacity="0.6" d="M265.181 155.845L318.776 144.049L315.87 130.764L262.274 142.56L265.181 155.845Z" fill="white"/>
<path opacity="0.6" d="M265.01 155.88L306.139 146.827L303.233 133.545L262.104 142.597L265.01 155.88Z" fill="white"/>
<path d="M264.879 154.061L318.588 143.989L318.228 142.653L264.773 153.68L264.879 154.061Z" fill="#6C63FF"/>
<path d="M316.881 136.198L262.97 144.927L263.068 145.377L317.104 137.216L316.881 136.198Z" fill="#6C63FF"/>
<path d="M316.003 132.189L263.012 145.124L263.106 145.553L316.224 133.197L316.003 132.189Z" fill="#6C63FF"/>
<path d="M317.602 138.768L264.902 153.078L264.815 152.682L317.408 137.879L317.602 138.768Z" fill="#6C63FF"/>
<path d="M262.252 142.688L315.522 131.022L315.618 131.462L262.358 143.171L262.252 142.688Z" fill="#6C63FF"/>
<path d="M260.179 115.454L313.774 103.658L310.868 90.3732L257.272 102.169L260.179 115.454Z" fill="#6C63FF"/>
<path opacity="0.6" d="M260.365 115.48L313.961 103.685L311.054 90.3996L257.459 102.195L260.365 115.48Z" fill="white"/>
<path opacity="0.6" d="M260.203 115.513L301.332 106.46L298.426 93.1781L257.297 102.231L260.203 115.513Z" fill="white"/>
<path d="M260.062 113.697L313.768 103.614L313.408 102.278L259.956 113.315L260.062 113.697Z" fill="#6C63FF"/>
<path d="M312.064 95.834L258.15 104.552L258.249 105.002L312.284 96.8407L312.064 95.834Z" fill="#6C63FF"/>
<path d="M311.184 91.8141L258.192 104.749L258.289 105.188L311.407 92.8324L311.184 91.8141Z" fill="#6C63FF"/>
<path d="M312.786 98.4039L260.083 112.703L259.998 112.318L312.592 97.5149L312.786 98.4039Z" fill="#6C63FF"/>
<path d="M265.226 141.669L318.821 129.873L315.915 116.588L262.319 128.384L265.226 141.669Z" fill="#6C63FF"/>
<path opacity="0.6" d="M265.406 141.685L319.002 129.889L316.095 116.604L262.5 128.4L265.406 141.685Z" fill="white"/>
<path opacity="0.6" d="M303.577 119.37L262.448 128.422L265.354 141.705L306.483 132.652L303.577 119.37Z" fill="white"/>
<path d="M318.134 127.845L264.984 140.265L265.216 141.629L318.186 128.238L318.134 127.845Z" fill="#6C63FF"/>
<path d="M262.696 128.48L315.966 116.814L316.063 117.254L262.802 128.963L262.696 128.48Z" fill="#6C63FF"/>
<path d="M263.73 134.848L316.209 119.576L316.113 119.137L263.509 133.841L263.73 134.848Z" fill="#6C63FF"/>
<path d="M316.232 118.04L263.238 130.964L263.334 131.403L316.452 119.047L316.232 118.04Z" fill="#6C63FF"/>
<path d="M317.831 124.619L265.13 138.929L265.043 138.533L317.636 123.73L317.831 124.619Z" fill="#6C63FF"/>
<path d="M311.317 104.486L257.802 116.544L260.575 129.578L314.224 117.771L311.317 104.486Z" fill="#6C63FF"/>
<path opacity="0.6" d="M260.628 129.566L314.224 117.771L311.317 104.486L257.721 116.281L260.628 129.566Z" fill="white"/>
<path opacity="0.6" d="M298.797 107.241L257.668 116.293L260.574 129.576L301.703 120.523L298.797 107.241Z" fill="white"/>
<path d="M300.478 107.159L257.798 116.545L258.096 117.906L299.853 108.723L300.478 107.159Z" fill="#6C63FF"/>
<path d="M312.26 110.27L259.097 122.477L259.184 122.873L312.455 111.16L312.26 110.27Z" fill="#6C63FF"/>
<path d="M260.336 128.132L313.037 113.822L313.121 114.208L260.531 129.021L260.336 128.132Z" fill="#6C63FF"/>
<path d="M259.241 123.137L312.744 112.483L312.826 112.859L259.434 124.016L259.241 123.137Z" fill="#6C63FF"/>
<path d="M318.672 72.6132L265.417 84.3315L266.881 91.021L320.136 79.3027L318.672 72.6132Z" fill="#6C63FF"/>
<path opacity="0.6" d="M318.672 72.6132L265.417 84.3315L266.881 91.021L320.136 79.3027L318.672 72.6132Z" fill="white"/>
<path opacity="0.6" d="M307.847 74.9945L265.417 84.3315L266.88 91.0195L309.31 81.6825L307.847 74.9945Z" fill="white"/>
<path d="M319.748 77.3588L266.544 89.3258L266.588 89.5296L319.849 77.8201L319.748 77.3588Z" fill="#6C63FF"/>
<path d="M265.94 86.5721L318.903 73.5086L318.948 73.7122L266.041 87.0329L265.94 86.5721Z" fill="#6C63FF"/>
<path d="M265.689 86.2427L319.069 75.0792L319.114 75.2829L265.788 86.6931L265.689 86.2427Z" fill="#6C63FF"/>
<path d="M310.586 71.3149L257.328 83.0303L258.034 86.2544L311.292 74.5391L310.586 71.3149Z" fill="#6C63FF"/>
<path opacity="0.6" d="M310.59 71.3359L257.332 83.0513L258.033 86.254L311.291 74.5387L310.59 71.3359Z" fill="white"/>
<path opacity="0.6" d="M299.732 73.522L257.289 82.8594L258.034 86.2646L300.477 76.9273L299.732 73.522Z" fill="white"/>
<path d="M257.885 85.4769L310.848 72.4134L310.892 72.617L257.985 85.9377L257.885 85.4769Z" fill="#6C63FF"/>
<path d="M257.53 83.8599L310.91 72.6964L310.955 72.9001L257.631 84.321L257.53 83.8599Z" fill="#6C63FF"/>
<path d="M314.819 66.9346L261.562 78.6499L262.267 81.8741L315.525 70.1587L314.819 66.9346Z" fill="#6C63FF"/>
<path opacity="0.6" d="M314.826 66.9556L261.568 78.6709L262.269 81.8737L315.527 70.1583L314.826 66.9556Z" fill="white"/>
<path opacity="0.6" d="M303.958 69.144L261.526 78.479L262.272 81.8842L304.703 72.5492L303.958 69.144Z" fill="white"/>
<path d="M261.911 80.0964L315.323 69.0267L315.359 69.2435L261.991 80.5622L261.911 80.0964Z" fill="#6C63FF"/>
<path d="M261.778 79.4761L315.148 68.3149L315.192 68.5187L261.879 79.9372L261.778 79.4761Z" fill="#6C63FF"/>
<path d="M316.545 80.0904L263.29 91.8096L265.175 100.423L318.429 88.7042L316.545 80.0904Z" fill="#6C63FF"/>
<path opacity="0.6" d="M316.545 80.0904L263.29 91.8096L265.175 100.423L318.429 88.7042L316.545 80.0904Z" fill="white"/>
<path opacity="0.6" d="M304.378 82.767L263.29 91.8096L265.174 100.421L306.262 91.3788L304.378 82.767Z" fill="white"/>
<path d="M316.79 82.849L263.464 94.2584L263.412 94.0225L316.673 82.3127L316.79 82.849Z" fill="#6C63FF"/>
<path d="M264.168 95.7282L317.767 85.5685L317.715 85.3327L264.053 95.2031L264.168 95.7282Z" fill="#6C63FF"/>
<path d="M316.568 80.0935L266.334 91.1396L267.685 91.9664L316.803 81.1656L316.568 80.0935Z" fill="#6C63FF"/>
<path d="M265.085 99.0449L318.204 86.6907L318.155 86.4655L264.967 98.5087L265.085 99.0449Z" fill="#6C63FF"/>
<path d="M444.545 230.894C443.718 230.285 442.731 229.929 441.706 229.869C440.68 229.808 439.659 230.046 438.765 230.554C437.499 228.229 435.386 226.481 432.864 225.673C430.343 224.865 427.608 225.058 425.225 226.214C424.612 223.635 423.14 221.342 421.05 219.712C418.961 218.082 416.378 217.211 413.728 217.244C411.078 217.277 408.518 218.21 406.469 219.891C404.42 221.573 403.005 223.901 402.455 226.494C402.387 227.327 402.086 228.124 401.585 228.794C400.635 229.794 399.055 229.444 397.705 229.334C395.569 229.221 393.457 229.825 391.703 231.05C389.95 232.274 388.655 234.05 388.025 236.094L446.545 235.874C446.766 234.939 446.692 233.959 446.334 233.067C445.976 232.176 445.351 231.417 444.545 230.894Z" fill="#E6E6E6"/>
<path d="M129.125 240.264C128.133 239.541 126.954 239.118 125.729 239.047C124.503 238.976 123.283 239.26 122.215 239.864C120.702 237.088 118.178 235.001 115.167 234.036C112.156 233.072 108.889 233.304 106.045 234.684C105.309 231.606 103.548 228.87 101.052 226.924C98.5559 224.979 95.4724 223.94 92.3079 223.979C89.1434 224.017 86.086 225.13 83.6377 227.136C81.1894 229.141 79.4958 231.919 78.8348 235.014C78.7688 236.007 78.422 236.961 77.8348 237.764C76.7048 238.924 74.8348 238.534 73.2048 238.414C70.6528 238.278 68.1286 238.998 66.0325 240.46C63.9365 241.922 62.3887 244.042 61.6348 246.484L131.555 246.224C131.813 245.101 131.719 243.926 131.284 242.859C130.849 241.792 130.095 240.886 129.125 240.264Z" fill="#E6E6E6"/>
<path d="M148.725 63.0235C147.405 62.0564 145.833 61.491 144.2 61.3952C142.566 61.2994 140.939 61.6773 139.515 62.4835C135.775 54.9335 125.365 51.6035 117.935 55.5835C116.869 51.5253 114.5 47.9293 111.192 45.3478C107.884 42.7662 103.821 41.3419 99.625 41.2935C95.4268 41.4373 91.3918 42.9555 88.14 45.6148C84.8882 48.274 82.5993 51.9273 81.625 56.0135C81.345 57.3135 81.165 58.7435 80.235 59.6935C78.725 61.2335 76.235 60.6935 74.055 60.5435C70.6512 60.3649 67.2851 61.3273 64.4901 63.2782C61.6951 65.229 59.6311 68.0568 58.625 71.3135L151.895 70.9735C152.735 67.8135 151.335 64.9935 148.725 63.0235Z" fill="#E6E6E6"/>
<path d="M425.345 50.6236C424.439 49.9609 423.36 49.5735 422.24 49.5079C421.119 49.4423 420.003 49.7012 419.025 50.2536C417.644 47.7247 415.344 45.8234 412.6 44.943C409.857 44.0626 406.88 44.2705 404.285 45.5236C403.617 42.7075 402.011 40.2026 399.73 38.4214C397.449 36.6401 394.629 35.6887 391.735 35.7236C388.841 35.7585 386.045 36.7777 383.808 38.6135C381.57 40.4493 380.025 42.9922 379.425 45.8236C379.352 46.7362 379.022 47.6096 378.475 48.3436C377.475 49.3436 375.715 49.0436 374.235 48.9236C371.903 48.8035 369.598 49.4639 367.684 50.8005C365.77 52.137 364.356 54.0734 363.665 56.3036L427.555 56.0636C427.794 55.0396 427.709 53.9669 427.314 52.9928C426.918 52.0187 426.23 51.191 425.345 50.6236Z" fill="#E6E6E6"/>
<path d="M453.789 149.807C458.324 130.37 446.424 110.894 427.211 106.307C407.997 101.719 388.746 113.757 384.211 133.194C379.676 152.631 391.576 172.106 410.789 176.694C430.002 181.281 449.254 169.243 453.789 149.807Z" fill="#E0E0E0"/>
<path d="M448.842 147.331C452.015 130.661 441.229 114.545 424.751 111.335C408.273 108.125 392.342 119.036 389.169 135.706C385.995 152.376 396.781 168.492 413.26 171.703C429.738 174.913 445.669 164.001 448.842 147.331Z" fill="#F0F0F0"/>
<path d="M417.566 120.416V141.914L403.487 133.857" fill="#F0F0F0"/>
<path d="M417.566 143.823C417.242 143.822 416.923 143.737 416.641 143.575L402.562 135.518C402.127 135.269 401.808 134.856 401.673 134.37C401.539 133.883 401.601 133.362 401.845 132.921C401.967 132.701 402.13 132.507 402.327 132.351C402.523 132.195 402.748 132.08 402.988 132.013C403.229 131.945 403.48 131.927 403.727 131.958C403.975 131.99 404.214 132.07 404.431 132.196L415.754 138.649V120.416C415.754 119.91 415.953 119.424 416.307 119.066C416.661 118.708 417.141 118.507 417.641 118.507C418.142 118.507 418.622 118.708 418.976 119.066C419.33 119.424 419.529 119.91 419.529 120.416V141.914C419.529 142.245 419.443 142.571 419.281 142.859C419.119 143.147 418.886 143.387 418.604 143.556C418.293 143.751 417.931 143.844 417.566 143.823Z" fill="#E0E0E0"/>
<path d="M125.567 418.83C116.908 412.962 105.131 415.225 99.2636 423.885C93.3959 432.544 95.6591 444.321 104.319 450.189C112.978 456.056 124.755 453.793 130.622 445.134C136.49 436.474 134.227 424.697 125.567 418.83Z" fill="#E0E0E0"/>
<path d="M123.423 420.818C115.861 416.14 105.939 418.478 101.261 426.04C96.5832 433.602 98.9211 443.524 106.483 448.202C114.045 452.88 123.967 450.542 128.645 442.98C133.323 435.418 130.985 425.496 123.423 420.818Z" fill="#F0F0F0"/>
<path d="M104.351 431.29L114.875 435.296L108.277 440.767" fill="#F0F0F0"/>
<path d="M115.81 435.653C115.748 435.813 115.646 435.955 115.514 436.064L108.916 441.535C108.712 441.704 108.45 441.785 108.186 441.761C107.923 441.737 107.679 441.609 107.51 441.406C107.425 441.305 107.361 441.187 107.321 441.061C107.282 440.935 107.268 440.802 107.28 440.671C107.293 440.539 107.331 440.411 107.393 440.294C107.455 440.178 107.54 440.074 107.642 439.99L112.936 435.586L104.01 432.188C103.763 432.093 103.562 431.904 103.454 431.662C103.345 431.421 103.337 431.145 103.432 430.897C103.526 430.65 103.715 430.449 103.957 430.341C104.199 430.232 104.474 430.224 104.722 430.319L115.245 434.325C115.407 434.387 115.551 434.49 115.661 434.623C115.771 434.757 115.845 434.918 115.875 435.089C115.912 435.279 115.889 435.476 115.81 435.653Z" fill="#E0E0E0"/>
</g>
<defs>
<clipPath id="clip0_221_1404">
<rect width="500" height="500" fill="white"/>
</clipPath>
</defs>
</svg>
