<svg width="500" height="500" viewBox="0 0 500 500" fill="none" xmlns="http://www.w3.org/2000/svg">
<path d="M238.857 379.646C365.909 379.646 468.904 378.622 468.904 377.36C468.904 376.097 365.909 375.073 238.857 375.073C111.805 375.073 8.80957 376.097 8.80957 377.36C8.80957 378.622 111.805 379.646 238.857 379.646Z" fill="#F5F5F5"/>
<path d="M410.325 259.628C408.091 259.508 405.911 259.735 403.798 260.511C401.859 261.22 400.174 262.343 398.596 263.627C397.459 264.563 396.416 265.58 396.028 267.077C395.574 267.652 395.199 268.321 394.41 268.669C394.41 267.251 394.437 265.914 394.397 264.563C394.384 264.028 394.544 263.6 394.825 263.146C395.32 262.33 396.042 261.701 396.537 260.886C396.777 260.832 397.018 260.792 397.245 260.725C401.739 259.401 405.189 256.7 407.637 252.728C408.158 251.872 408.773 251.029 408.827 249.96C408.76 249.384 408.426 249.17 407.677 249.264C405.791 249.518 404.012 250.12 402.367 251.069C400.147 252.34 398.516 254.239 397.219 256.392C396.537 257.529 396.002 258.759 395.908 260.11C395.507 260.805 395.052 261.461 394.464 262.129V256.673C394.785 256.459 395.012 256.165 395.199 255.844C396.176 254.092 396.911 252.273 397.125 250.254C397.299 248.636 397.286 247.044 396.991 245.439C396.644 243.58 395.908 241.855 395.092 240.17C393.715 237.589 391.856 235.396 389.676 233.47C389.435 233.256 389.114 233.109 388.807 232.989C388.071 232.708 387.242 233.149 387.108 233.885C386.814 235.516 386.493 237.161 386.44 238.806C386.333 241.641 386.386 244.476 387.175 247.245C387.189 247.378 387.189 247.512 387.229 247.646C387.884 249.585 388.646 251.471 389.823 253.142C390.773 254.48 391.829 255.75 393.34 256.512C393.514 256.713 393.514 256.954 393.514 257.194C393.514 258.318 393.514 259.455 393.514 260.578V262.758C393.086 262.704 392.966 262.357 392.698 262.21C392.698 262.169 392.698 262.116 392.672 262.089C392.565 261.875 392.645 261.594 392.444 261.407C392.351 260.805 392.043 260.284 391.762 259.762C391.174 258.639 390.519 257.542 389.489 256.753C387.523 254.573 385.116 253.116 382.281 252.367C380.97 252.019 379.633 251.845 378.282 252.099C377.64 252.22 377.332 252.661 377.48 253.303C377.56 253.651 377.707 253.972 377.974 254.212C378.456 254.881 378.911 255.563 379.419 256.205C381.278 258.585 383.725 260.217 386.413 261.487C388.165 262.316 389.97 262.985 391.963 262.892C392.257 263.159 392.565 263.426 392.846 263.707C393.113 263.975 393.501 264.175 393.501 264.643C393.501 265.954 393.514 267.265 393.528 268.575C393.528 268.936 393.381 268.936 393.14 268.776C392.645 268.455 392.15 268.121 391.655 267.8C390.559 265.954 388.847 264.951 386.854 264.363C384.902 263.788 382.909 263.841 380.93 264.135C380.221 264.242 379.486 264.416 378.884 264.884C378.215 265.392 378.255 265.914 379.018 266.342C379.125 266.449 379.231 266.583 379.365 266.649C381.612 267.907 384.073 268.415 386.6 268.655C388.111 268.803 389.609 268.562 391.12 268.482C391.241 268.575 391.361 268.682 391.482 268.762C393.514 270.1 393.528 270.113 393.541 272.507C393.541 273.376 393.541 274.246 393.541 275.208C392.739 274.553 392.057 274.005 391.388 273.457C391.308 273.35 391.214 273.243 391.134 273.149C390.786 272.708 390.331 272.4 389.85 272.119C388.713 271.464 387.469 271.237 386.186 271.13C384.474 270.982 382.842 271.21 381.358 272.133C381.09 272.293 380.836 272.507 381.024 272.881C381.05 273.176 381.211 273.323 381.492 273.457C382.2 273.804 382.936 274.112 383.698 274.326C386.092 275.008 388.486 274.994 390.88 274.353C391.468 274.807 392.057 275.249 392.645 275.703C393.207 276.131 393.541 276.639 393.421 277.388C393.394 277.535 393.367 277.696 393.394 277.856C393.394 277.87 393.394 277.883 393.394 277.896C393.394 277.91 393.407 277.923 393.407 277.95C393.407 277.963 393.421 277.977 393.421 277.99C393.421 278.017 393.434 278.03 393.447 278.057C393.461 278.07 393.461 278.084 393.474 278.11C393.488 278.124 393.501 278.137 393.501 278.151C394.41 278.097 394.41 278.097 394.45 277.121C394.464 276.786 394.504 276.492 394.785 276.238C395.494 275.583 396.189 274.914 396.884 274.246C397.125 274.272 397.366 274.286 397.607 274.339C400.428 274.954 403.17 274.74 405.751 273.416C406.433 273.069 407.262 272.815 407.596 271.985C407.877 271.21 407.235 270.982 406.781 270.809C403.945 269.685 401.15 269.886 398.436 271.21C397.299 271.758 396.376 272.574 395.895 273.804C395.413 274.125 395.092 274.673 394.477 274.968C394.477 273.363 394.477 271.838 394.477 270.314C394.477 270.113 394.584 269.993 394.704 269.859C395.721 268.749 396.751 267.666 398.476 267.987C398.516 267.987 398.556 267.96 398.596 267.947C399.72 267.866 400.829 267.652 401.899 267.345C404.2 266.69 406.313 265.646 408.171 264.135C409.322 263.186 410.365 262.156 411.14 260.872C411.394 260.217 411.1 259.682 410.325 259.628Z" fill="#6C63FF"/>
<g opacity="0.25">
<path d="M395.052 240.197C394.785 240.183 394.651 240.371 394.517 240.544C393.742 241.454 392.913 242.256 391.575 242.082C391.241 242.136 391.027 242.296 391.067 242.657C391.161 243.393 391.321 244.129 391.388 244.877C391.455 245.773 391.816 246.643 391.589 247.552C390.104 247.552 388.606 247.646 387.135 247.285C386.346 244.516 386.293 241.681 386.4 238.846C386.467 237.188 386.774 235.556 387.068 233.925C387.202 233.176 388.045 232.748 388.767 233.029C389.074 233.149 389.395 233.296 389.636 233.51C391.829 235.422 393.675 237.616 395.052 240.197Z" fill="#8A8A8A"/>
<path d="M397.098 250.28C396.884 252.3 396.149 254.119 395.173 255.871C394.985 256.205 394.758 256.499 394.437 256.7C393.862 253.731 393.3 250.762 392.712 247.793C392.337 245.894 392.097 243.955 391.575 242.083C392.913 242.256 393.742 241.454 394.517 240.545C394.664 240.384 394.798 240.184 395.052 240.197C395.868 241.895 396.604 243.607 396.951 245.466C397.259 247.057 397.272 248.662 397.098 250.28Z" fill="#5D5D5D"/>
<path d="M398.53 267.986C398.49 268 398.436 268.027 398.41 268.027C396.684 267.706 395.655 268.802 394.638 269.899C394.518 270.033 394.411 270.153 394.411 270.354C394.411 271.878 394.411 273.403 394.411 275.007C395.026 274.713 395.347 274.165 395.829 273.844C396.123 273.978 396.39 273.817 396.671 273.764C396.778 273.924 396.818 274.111 396.818 274.312C396.123 274.981 395.441 275.663 394.719 276.305C394.438 276.559 394.398 276.853 394.384 277.187C394.344 278.164 394.344 278.164 393.435 278.217C393.421 278.204 393.408 278.19 393.408 278.177C393.395 278.164 393.381 278.15 393.381 278.123C393.368 278.11 393.354 278.083 393.354 278.057C393.354 278.043 393.341 278.03 393.341 278.016C393.341 278.003 393.328 277.99 393.328 277.963C393.328 277.95 393.328 277.936 393.328 277.923C393.301 277.762 393.341 277.602 393.354 277.455C393.475 276.706 393.14 276.184 392.579 275.77C391.99 275.328 391.402 274.874 390.813 274.419C390.693 273.951 390.974 273.724 391.322 273.51C392.004 274.058 392.686 274.62 393.475 275.262C393.475 274.299 393.475 273.429 393.475 272.56C393.461 270.166 393.448 270.153 391.415 268.816C391.282 268.735 391.175 268.628 391.054 268.535C391.027 268.267 391.094 268.027 391.335 267.866C391.429 267.866 391.509 267.853 391.603 267.853C392.097 268.174 392.592 268.508 393.087 268.829C393.328 268.989 393.488 268.976 393.475 268.628C393.461 267.318 393.461 266.007 393.448 264.697C393.448 264.229 393.06 264.028 392.793 263.76C392.512 263.48 392.204 263.226 391.91 262.945C392.258 262.811 392.178 262.249 392.646 262.249C392.913 262.383 393.02 262.744 393.461 262.798V260.618C393.461 259.481 393.461 258.358 393.461 257.234C393.461 256.994 393.461 256.739 393.288 256.552C393.341 256.271 393.488 256.017 393.435 255.71C392.98 253.369 392.539 251.029 392.057 248.689C391.977 248.301 392.071 247.793 391.589 247.539C391.816 246.629 391.469 245.76 391.389 244.864C391.322 244.115 391.161 243.379 391.068 242.644C391.027 242.283 391.241 242.122 391.576 242.069C392.097 243.941 392.338 245.88 392.713 247.779C393.288 250.748 393.863 253.717 394.438 256.686V262.142C395.026 261.46 395.481 260.805 395.882 260.123C395.922 260.123 395.962 260.123 396.002 260.123C396.698 260.176 396.765 260.27 396.524 260.899C396.029 261.714 395.32 262.356 394.812 263.159C394.531 263.613 394.371 264.041 394.384 264.576C394.411 265.914 394.398 267.264 394.398 268.682C395.2 268.334 395.574 267.665 396.016 267.09C396.444 266.943 396.845 266.743 397.313 266.769C397.407 267.037 397.647 267.184 397.875 267.171C398.503 267.157 398.583 267.505 398.53 267.986Z" fill="#414141"/>
<path d="M392.619 262.129C391.856 261.781 391.188 261.26 390.466 260.832C388.353 259.548 386.226 258.264 384.1 257.007C382.281 255.937 380.516 254.801 378.617 253.891C378.149 253.677 377.908 253.664 377.935 254.266C377.654 254.025 377.507 253.704 377.44 253.356C377.306 252.714 377.6 252.273 378.242 252.153C379.593 251.912 380.944 252.086 382.241 252.42C385.076 253.169 387.483 254.627 389.449 256.807C389.329 257.275 389.623 257.649 389.73 258.064C390.011 259.12 390.532 260.07 391.335 260.805C391.629 261.073 391.83 261.594 392.391 261.447C392.592 261.634 392.512 261.915 392.619 262.129Z" fill="#8A8A8A"/>
<path d="M411.088 260.912C410.78 260.685 410.499 260.832 410.218 260.966C406.18 262.972 402.034 264.75 397.835 266.395C397.634 266.475 397.393 266.502 397.327 266.77C396.858 266.743 396.444 266.943 396.029 267.091C396.404 265.593 397.447 264.576 398.597 263.64C400.175 262.343 401.86 261.22 403.799 260.524C405.912 259.749 408.092 259.521 410.325 259.642C411.101 259.682 411.395 260.217 411.088 260.912Z" fill="#8A8A8A"/>
<path d="M392.645 262.263C392.177 262.263 392.257 262.838 391.909 262.958C389.917 263.039 388.111 262.383 386.359 261.554C383.671 260.27 381.224 258.652 379.365 256.272C378.857 255.63 378.402 254.948 377.921 254.279C377.894 253.691 378.148 253.691 378.603 253.905C380.515 254.814 382.281 255.951 384.086 257.021C386.226 258.278 388.339 259.562 390.452 260.845C391.16 261.273 391.829 261.795 392.605 262.143C392.645 262.169 392.658 262.209 392.645 262.263Z" fill="#5D5D5D"/>
<path d="M408.8 249.959C408.746 251.029 408.131 251.872 407.61 252.728C405.162 256.7 401.712 259.401 397.219 260.725C396.991 260.792 396.751 260.832 396.51 260.886C396.737 260.257 396.684 260.163 395.988 260.11C396.577 259.548 397.152 258.946 397.767 258.411C398.569 257.716 399.332 256.967 400.174 256.339C402.167 254.854 404.133 253.356 406.032 251.765C406.888 251.069 407.703 250.294 408.8 249.959Z" fill="#5D5D5D"/>
<path d="M408.801 249.96C407.704 250.294 406.888 251.056 406.046 251.765C404.147 253.356 402.181 254.868 400.188 256.339C399.332 256.981 398.57 257.716 397.781 258.411C397.166 258.946 396.591 259.535 396.002 260.11C395.962 260.11 395.922 260.11 395.882 260.11C395.989 258.746 396.51 257.529 397.192 256.392C398.503 254.226 400.121 252.34 402.341 251.069C403.986 250.12 405.765 249.518 407.65 249.264C408.413 249.17 408.747 249.398 408.801 249.96Z" fill="#8A8A8A"/>
<path d="M393.301 256.552C391.79 255.79 390.733 254.533 389.784 253.182C388.607 251.511 387.831 249.612 387.189 247.686C387.149 247.566 387.149 247.418 387.136 247.285C388.607 247.632 390.105 247.552 391.589 247.552C392.071 247.793 391.977 248.314 392.057 248.702C392.539 251.029 392.98 253.383 393.435 255.723C393.501 256.017 393.354 256.272 393.301 256.552Z" fill="#5D5D5D"/>
<path d="M411.088 260.912C410.312 262.196 409.269 263.239 408.119 264.175C406.26 265.7 404.147 266.743 401.847 267.385C400.763 267.692 399.667 267.906 398.543 267.987C398.597 267.505 398.517 267.158 397.902 267.171C397.674 267.171 397.433 267.037 397.34 266.77C397.393 266.502 397.634 266.476 397.848 266.395C402.047 264.75 406.193 262.972 410.232 260.966C410.499 260.832 410.78 260.685 411.088 260.912Z" fill="#5D5D5D"/>
<path d="M391.589 267.867C391.496 267.867 391.402 267.88 391.322 267.88C391.054 267.666 390.747 267.532 390.426 267.492C389.088 267.332 387.778 266.984 386.467 266.743C384.18 266.315 381.907 266.235 379.607 266.275C379.393 266.275 379.179 266.369 378.965 266.422C378.203 265.981 378.162 265.473 378.831 264.965C379.433 264.51 380.168 264.323 380.877 264.216C382.856 263.921 384.849 263.868 386.802 264.443C388.781 265.018 390.493 266.021 391.589 267.867Z" fill="#8A8A8A"/>
<path d="M407.53 272.052C407.396 271.865 407.249 271.918 407.062 271.972C405.497 272.4 403.892 272.52 402.287 272.681C400.897 272.814 399.506 272.881 398.142 273.135C397.62 273.229 397.018 273.229 396.671 273.777C396.39 273.831 396.122 273.991 395.828 273.857C396.31 272.64 397.232 271.825 398.369 271.263C401.084 269.939 403.879 269.738 406.714 270.862C407.169 271.049 407.811 271.276 407.53 272.052Z" fill="#8A8A8A"/>
<path d="M391.04 268.549C389.543 268.642 388.045 268.87 386.52 268.723C383.993 268.482 381.532 267.96 379.285 266.717C379.151 266.65 379.058 266.516 378.938 266.409C379.151 266.356 379.365 266.275 379.579 266.262C381.88 266.235 384.166 266.302 386.44 266.73C387.764 266.984 389.061 267.318 390.398 267.479C390.719 267.519 391.027 267.653 391.295 267.867C391.081 268.041 391.014 268.281 391.04 268.549Z" fill="#5D5D5D"/>
<path d="M407.53 272.052C407.196 272.881 406.367 273.135 405.685 273.483C403.09 274.794 400.349 275.021 397.54 274.406C397.299 274.352 397.059 274.339 396.818 274.312C396.831 274.112 396.778 273.938 396.671 273.764C397.005 273.216 397.62 273.216 398.142 273.122C399.506 272.868 400.91 272.814 402.288 272.667C403.893 272.507 405.497 272.387 407.062 271.959C407.249 271.918 407.396 271.865 407.53 272.052Z" fill="#5D5D5D"/>
<path d="M391.054 273.216C390.586 273.176 390.131 273.109 389.663 273.095C386.761 273.028 383.845 273.216 380.943 272.962C380.756 272.587 381.01 272.373 381.278 272.213C382.762 271.29 384.394 271.063 386.105 271.21C387.389 271.317 388.646 271.544 389.77 272.199C390.251 272.467 390.706 272.774 391.054 273.216Z" fill="#8A8A8A"/>
<path d="M390.8 274.432C388.406 275.061 386.012 275.074 383.618 274.406C382.856 274.192 382.12 273.884 381.411 273.536C381.131 273.403 380.97 273.256 380.943 272.961C383.845 273.216 386.761 273.042 389.663 273.095C390.131 273.109 390.586 273.175 391.054 273.216C391.134 273.323 391.214 273.429 391.308 273.523C390.96 273.737 390.679 273.964 390.8 274.432Z" fill="#5D5D5D"/>
<path d="M392.391 261.447C391.83 261.594 391.629 261.059 391.335 260.805C390.519 260.07 389.998 259.12 389.73 258.064C389.623 257.649 389.329 257.275 389.449 256.807C390.492 257.596 391.134 258.692 391.723 259.816C391.99 260.337 392.298 260.845 392.391 261.447Z" fill="#5D5D5D"/>
</g>
<path d="M410.047 276.965H378.591V282.543H410.047V276.965Z" fill="#FAB9B3"/>
<path d="M380.942 281.438L383.619 298.732H404.505L407.701 281.438H380.942Z" fill="#FAB9B3"/>
<path d="M408.195 282.543C408.195 282.839 401.986 283.105 394.319 283.105C386.652 283.105 380.443 282.839 380.443 282.543C380.443 282.247 386.652 281.98 394.319 281.98C401.986 281.98 408.195 282.365 408.195 282.543Z" fill="#263238"/>
<path d="M380.674 298.112V299.89H381.974H407.964V298.112H380.674Z" fill="#EBEBEB"/>
<path d="M383.256 303.01L381.974 299.89H406.972L405.477 303.01H383.256Z" fill="#E0E0E0"/>
<path d="M407.279 300.062C407.279 300.133 401.595 300.192 394.582 300.192C387.569 300.192 381.891 300.133 381.891 300.062C381.891 299.991 387.569 299.932 394.582 299.932C401.595 299.932 407.279 299.991 407.279 300.062Z" fill="#F5F5F5"/>
<path d="M445.785 242.401C445.785 242.401 442.401 235.026 446.263 227.748C450.126 220.47 451.252 218.757 448.789 217.271C446.325 215.784 445.188 223.088 445.188 223.088C445.188 223.088 443.131 218.058 444.823 212.801C446.515 207.545 447.616 198.966 445.276 198.045C442.936 197.124 444.828 208.738 442.797 212.698C441.761 209.918 441.092 207.015 440.806 204.063C440.529 199.835 440.966 193.087 439.114 191.353C437.263 189.62 436.085 190.839 437.9 200.149C438.992 205.724 439.596 211.385 439.706 217.065C439.706 217.065 435.689 204.824 433.019 204.469C430.35 204.114 430.329 208.069 432.639 211.51C434.948 214.951 439.371 221.103 440.097 224.291C440.097 224.291 435.694 215.085 431.728 217.903C427.763 220.722 435.18 226.292 438.482 228.303C441.784 230.314 444.083 242.91 444.083 242.91L445.785 242.401Z" fill="#6C63FF"/>
<path opacity="0.2" d="M445.785 242.401C445.785 242.401 442.401 235.026 446.263 227.748C450.126 220.47 451.252 218.757 448.789 217.271C446.325 215.784 445.188 223.088 445.188 223.088C445.188 223.088 443.131 218.058 444.823 212.801C446.515 207.545 447.616 198.966 445.276 198.045C442.936 197.124 444.828 208.738 442.797 212.698C441.761 209.918 441.092 207.015 440.806 204.063C440.529 199.835 440.966 193.087 439.114 191.353C437.263 189.62 436.085 190.839 437.9 200.149C438.992 205.724 439.596 211.385 439.706 217.065C439.706 217.065 435.689 204.824 433.019 204.469C430.35 204.114 430.329 208.069 432.639 211.51C434.948 214.951 439.371 221.103 440.097 224.291C440.097 224.291 435.694 215.085 431.728 217.903C427.763 220.722 435.18 226.292 438.482 228.303C441.784 230.314 444.083 242.91 444.083 242.91L445.785 242.401Z" fill="black"/>
<path d="M443.11 245.534C443.11 245.534 446.407 239.772 442.457 234.177C438.507 228.582 437.36 227.266 439.808 226.082C442.256 224.898 443.47 230.552 443.47 230.552C443.47 230.552 445.486 226.632 443.712 222.577C441.937 218.521 440.754 211.882 443.084 211.144C445.414 210.406 443.66 219.431 445.738 222.473C446.742 220.308 447.374 218.05 447.621 215.758C447.852 212.476 447.333 207.248 449.164 205.884C450.995 204.52 452.193 205.437 450.486 212.691C449.462 217.024 448.927 221.418 448.886 225.823C448.886 225.823 452.754 216.288 455.444 215.981C458.134 215.674 458.175 218.745 455.912 221.436C453.649 224.128 449.277 228.953 448.583 231.406C448.583 231.406 452.877 224.228 456.874 226.361C460.87 228.495 453.525 232.901 450.249 234.496C446.973 236.091 444.807 245.893 444.807 245.893L443.11 245.534Z" fill="#6C63FF"/>
<path d="M445.285 241.441C445.285 241.441 444.105 239.703 441.965 240.048C439.825 240.393 439.292 240.537 439.295 239.676C439.299 238.815 441.075 239.256 441.075 239.256C441.075 239.256 440.241 238.138 438.841 238.079C437.442 238.019 435.389 237.432 435.503 236.667C435.618 235.902 437.94 237.656 439.094 237.488C438.618 236.902 438.064 236.408 437.446 236.019C436.545 235.497 434.986 234.918 434.853 234.208C434.72 233.497 435.147 233.284 436.972 234.778C438.062 235.672 439.237 236.435 440.484 237.059C440.484 237.059 438.31 234.633 438.597 233.826C438.884 233.018 439.763 233.433 440.213 234.451C440.664 235.469 441.428 237.383 442.029 237.921C442.029 237.921 440.585 235.702 441.747 234.862C442.909 234.023 443.141 236.724 443.139 237.877C443.137 239.03 445.623 241.009 445.623 241.009L445.285 241.441Z" fill="#6C63FF"/>
<path d="M455.857 228.126C455.857 228.126 457.565 226.903 457.167 224.772C456.768 222.642 456.611 222.112 457.472 222.094C458.332 222.076 457.936 223.863 457.936 223.863C457.936 223.863 459.033 223.001 459.057 221.6C459.081 220.199 459.617 218.133 460.384 218.228C461.152 218.323 459.457 220.688 459.654 221.837C460.228 221.347 460.708 220.781 461.081 220.153C461.58 219.24 462.12 217.667 462.827 217.516C463.534 217.365 463.758 217.787 462.31 219.649C461.444 220.761 460.711 221.954 460.118 223.216C460.118 223.216 462.488 220.983 463.303 221.249C464.117 221.515 463.724 222.404 462.718 222.88C461.712 223.357 459.818 224.168 459.295 224.783C459.295 224.783 461.477 223.284 462.345 224.424C463.214 225.565 460.52 225.865 459.367 225.891C458.214 225.918 456.298 228.453 456.298 228.453L455.857 228.126Z" fill="#6C63FF"/>
<path d="M431.707 218.959C431.707 218.959 431.582 217.871 430.448 217.689C429.314 217.506 429.017 217.49 429.241 217.05C429.466 216.61 430.219 217.134 430.219 217.134C430.219 217.134 430.101 216.421 429.433 216.156C428.766 215.891 427.916 215.246 428.17 214.873C428.424 214.501 429.103 215.788 429.709 215.896C429.629 215.516 429.486 215.17 429.286 214.867C428.981 214.449 428.37 213.891 428.489 213.505C428.608 213.119 428.872 213.081 429.376 214.153C429.676 214.793 430.052 215.381 430.499 215.909C430.499 215.909 430.066 214.303 430.415 213.938C430.764 213.572 431.085 213.932 431.042 214.529C430.998 215.126 430.876 216.234 431.03 216.61C431.03 216.61 430.899 215.232 431.684 214.997C432.468 214.762 431.882 216.184 431.583 216.774C431.283 217.364 431.984 218.794 431.984 218.794L431.707 218.959Z" fill="#6C63FF"/>
<path d="M442.093 186.369C442.085 187.128 441.938 187.739 441.658 188.314C441.533 188.571 441.533 188.696 441.879 188.741C442.601 188.836 443.249 189.116 443.831 189.58C444.714 190.287 444.729 191.488 444.03 192.268C443.463 192.902 442.704 193.108 441.909 193.211C441.555 193.255 441.511 193.299 441.651 193.646C441.96 194.404 442.093 195.17 441.739 195.951C441.216 197.107 440.259 197.372 439.162 197.144C438.241 196.952 437.556 196.407 437.092 195.597C436.915 195.288 436.842 195.28 436.599 195.59C436.253 196.039 435.862 196.444 435.361 196.717C434.632 197.114 433.844 197.32 433.042 196.989C432.298 196.687 431.944 196.046 431.863 195.273C431.79 194.581 431.93 193.911 432.239 193.285C432.497 192.762 432.32 192.762 431.885 192.703C431.362 192.637 430.891 192.482 430.471 192.173C429.116 191.186 429.271 189.669 430.619 188.851C431.149 188.527 431.731 188.431 432.32 188.365C432.695 188.321 432.629 188.21 432.497 187.96C432.092 187.201 431.856 186.406 432.165 185.544C432.511 184.565 433.498 183.946 434.537 184.219C435.45 184.462 436.208 184.941 436.827 185.633C437.026 185.861 437.136 185.854 437.335 185.64C438.005 184.918 438.801 184.432 439.788 184.211C440.804 183.991 441.791 184.779 442.019 185.706C442.063 185.979 442.107 186.229 442.093 186.369ZM438.919 190.471C438.852 189.477 438.16 188.652 437.048 188.667C436.024 188.682 435.236 189.448 435.251 190.486C435.266 191.547 435.995 192.283 437.077 192.313C438.064 192.342 438.919 191.451 438.919 190.471Z" fill="#FE7178"/>
<path d="M438.919 190.471C438.926 191.458 438.072 192.342 437.078 192.32C435.995 192.29 435.259 191.554 435.251 190.493C435.236 189.455 436.024 188.689 437.048 188.674C438.153 188.652 438.845 189.477 438.919 190.471Z" fill="#6C63FF"/>
<path d="M447.161 299.676L449.346 302.24L439.732 302.319L441.891 299.717C437.368 295.517 433.476 281.534 431.336 271.277C431.262 270.912 431.193 270.557 431.114 270.205C430.359 266.847 429.827 263.443 429.522 260.015C429.493 256.363 433.749 253.239 439.665 252.14L433.761 245.197L454.44 245.027L448.641 252.068C454.6 253.059 458.886 256.126 458.915 259.779C458.926 263.737 453.966 293.138 447.161 299.676Z" fill="#263238"/>
<path opacity="0.2" d="M437.734 264.466C438.61 269.165 439.104 273.926 439.211 278.704L439.874 292.651C439.914 293.638 434.811 265.243 435.172 263.494C435.394 262.401 436.452 262.297 437.163 263.328C437.427 263.666 437.621 264.053 437.734 264.466Z" fill="white"/>
<path opacity="0.2" d="M438.518 259.928C438.486 260.437 437.317 261.334 436.158 261.141C434.998 260.949 434.315 259.742 434.335 259.227C434.354 258.712 435.317 258.462 436.468 258.658C437.619 258.855 438.538 259.413 438.518 259.928Z" fill="white"/>
<path d="M432.618 294.373C432.618 294.373 432.32 302.983 420.948 302.983C409.576 302.983 409.278 294.373 409.278 294.373H432.618Z" fill="#F0F0F0"/>
<path d="M398.509 308.666H372.395V371.843H398.509V308.666Z" fill="#F0F0F0"/>
<path d="M461.859 371.843H377.408V377.711H461.859V371.843Z" fill="#F0F0F0"/>
<path d="M398.51 371.85H466.873V308.672H398.51V371.85Z" fill="#F5F5F5"/>
<path d="M408.781 335.794H456.606V316.355H408.781V335.794Z" fill="#F0F0F0"/>
<path d="M408.781 360.77H456.606V341.331H408.781V360.77Z" fill="#F0F0F0"/>
<path d="M470.35 303.003H398.51V308.666H470.35V303.003Z" fill="#F0F0F0"/>
<path d="M368.746 308.672H398.51V303.01H368.746V308.672Z" fill="#E6E6E6"/>
<path opacity="0.2" d="M446.142 124.806C446.142 125.153 446.142 125.493 446.142 125.826V152.33H409.892L407.965 150.495L409.892 124.806C409.892 119.999 411.801 115.389 415.2 111.99C418.599 108.591 423.21 106.681 428.017 106.681C432.824 106.681 437.434 108.591 440.833 111.99C444.232 115.389 446.142 119.999 446.142 124.806Z" fill="black"/>
<path d="M444.215 123.012C444.215 123.369 444.215 123.716 444.215 124.032V150.414H407.965V123.012C407.965 118.205 409.874 113.595 413.274 110.196C416.673 106.797 421.283 104.887 426.09 104.887C430.897 104.887 435.507 106.797 438.906 110.196C442.305 113.595 444.215 118.205 444.215 123.012Z" fill="#F5F5F5"/>
<path d="M439.268 125.47C440.392 118.546 435.69 112.021 428.765 110.897C421.841 109.773 415.316 114.475 414.192 121.4C413.068 128.324 417.771 134.849 424.695 135.973C431.619 137.097 438.144 132.394 439.268 125.47Z" fill="#E0E0E0"/>
<path d="M425.244 135.908C432.259 135.908 437.946 130.221 437.946 123.206C437.946 116.191 432.259 110.504 425.244 110.504C418.229 110.504 412.542 116.191 412.542 123.206C412.542 130.221 418.229 135.908 425.244 135.908Z" fill="white"/>
<path d="M426.09 124.052C426.09 124.254 426.03 124.451 425.918 124.618C425.806 124.786 425.647 124.917 425.46 124.994C425.274 125.071 425.069 125.091 424.871 125.052C424.674 125.013 424.492 124.916 424.349 124.773C424.207 124.63 424.11 124.449 424.07 124.251C424.031 124.053 424.051 123.848 424.128 123.662C424.206 123.476 424.336 123.317 424.504 123.205C424.671 123.092 424.869 123.033 425.07 123.033C425.341 123.033 425.6 123.14 425.791 123.331C425.982 123.522 426.09 123.782 426.09 124.052Z" fill="#E0E0E0"/>
<path d="M424.938 124.429L420.555 120.301L420.983 119.842L424.959 123.583L432.084 117.293L432.492 117.762L424.938 124.429Z" fill="#E0E0E0"/>
<path d="M372.384 218.767H209.433C208.474 218.773 207.525 218.583 206.643 218.207C205.761 217.832 204.965 217.278 204.306 216.582C203.647 215.886 203.138 215.062 202.812 214.16C202.485 213.259 202.347 212.3 202.406 211.344L208.487 87.0105C208.599 85.021 209.463 83.1483 210.902 81.7705C212.342 80.3928 214.251 79.6126 216.243 79.5876H379.194C380.153 79.5798 381.103 79.7695 381.986 80.145C382.868 80.5204 383.664 81.0736 384.323 81.77C384.982 82.4664 385.491 83.2911 385.817 84.1927C386.144 85.0943 386.281 86.0535 386.221 87.0105L380.141 211.344C380.026 213.333 379.163 215.205 377.723 216.582C376.284 217.959 374.376 218.74 372.384 218.767Z" fill="#6C63FF"/>
<path opacity="0.7" d="M372.384 218.767H209.433C208.474 218.773 207.525 218.583 206.643 218.207C205.761 217.832 204.965 217.278 204.306 216.582C203.647 215.886 203.138 215.062 202.812 214.16C202.485 213.259 202.347 212.3 202.406 211.344L208.487 87.0105C208.599 85.021 209.463 83.1483 210.902 81.7705C212.342 80.3928 214.251 79.6126 216.243 79.5876H379.194C380.153 79.5798 381.103 79.7695 381.986 80.145C382.868 80.5204 383.664 81.0736 384.323 81.77C384.982 82.4664 385.491 83.2911 385.817 84.1927C386.144 85.0943 386.281 86.0535 386.221 87.0105L380.141 211.344C380.026 213.333 379.163 215.205 377.723 216.582C376.284 217.959 374.376 218.74 372.384 218.767Z" fill="white"/>
<path d="M385.504 80.9301C384.636 79.9686 383.553 79.2267 382.343 78.765L382.565 78.1836C383.862 78.6865 385.024 79.4826 385.961 80.5094L385.504 80.9301Z" fill="#6C63FF"/>
<path d="M379.275 77.5835H366.248V78.2021H379.275V77.5835Z" fill="#6C63FF"/>
<path d="M379.194 79.6249H216.243C214.251 79.6499 212.342 80.43 210.902 81.8077C209.462 83.1855 208.599 85.0582 208.486 87.0477H386.233C386.294 86.0896 386.156 85.1294 385.829 84.2269C385.501 83.3245 384.991 82.4992 384.331 81.8026C383.67 81.1061 382.873 80.5532 381.989 80.1785C381.105 79.8038 380.154 79.6153 379.194 79.6249Z" fill="#6C63FF"/>
<path d="M207.379 210.379L213.033 95.4045C213.086 94.4776 213.49 93.6056 214.162 92.9648C214.833 92.324 215.724 91.9623 216.652 91.9528H377.574C378.021 91.9478 378.464 92.0349 378.876 92.2087C379.288 92.3826 379.659 92.6395 379.968 92.9634C380.276 93.2872 380.514 93.6711 380.667 94.0911C380.82 94.5112 380.885 94.9582 380.858 95.4045L375.235 210.385C375.182 211.313 374.778 212.187 374.105 212.829C373.432 213.471 372.541 213.833 371.611 213.843H210.664C210.216 213.847 209.772 213.759 209.36 213.584C208.947 213.409 208.576 213.151 208.267 212.826C207.959 212.501 207.721 212.116 207.569 211.695C207.416 211.274 207.351 210.826 207.379 210.379Z" fill="white"/>
<path opacity="0.3" d="M230.217 131.368H222.794C222.633 131.37 222.474 131.339 222.325 131.277C222.177 131.215 222.043 131.123 221.932 131.007C221.821 130.891 221.734 130.754 221.678 130.603C221.622 130.452 221.598 130.292 221.606 130.131L222.225 117.141C222.247 116.807 222.394 116.494 222.637 116.265C222.88 116.035 223.202 115.906 223.536 115.904H230.959C231.12 115.901 231.28 115.932 231.429 115.993C231.578 116.055 231.713 116.147 231.825 116.263C231.937 116.379 232.024 116.517 232.08 116.668C232.137 116.819 232.161 116.98 232.153 117.141L231.534 130.131C231.512 130.466 231.364 130.78 231.119 131.01C230.875 131.239 230.552 131.367 230.217 131.368Z" fill="#6C63FF"/>
<path opacity="0.3" d="M245.076 131.368H237.653C237.492 131.369 237.333 131.337 237.185 131.275C237.037 131.213 236.903 131.121 236.791 131.005C236.679 130.89 236.592 130.752 236.535 130.602C236.478 130.452 236.452 130.292 236.459 130.131L237.208 114.79C237.232 114.457 237.381 114.144 237.625 113.915C237.869 113.686 238.19 113.557 238.525 113.553H245.948C246.109 113.552 246.268 113.584 246.416 113.646C246.564 113.709 246.698 113.801 246.81 113.916C246.921 114.032 247.008 114.169 247.065 114.319C247.123 114.47 247.148 114.63 247.142 114.79L246.393 130.131C246.369 130.465 246.219 130.777 245.975 131.006C245.731 131.235 245.41 131.364 245.076 131.368Z" fill="#6C63FF"/>
<path opacity="0.3" d="M259.933 131.368H252.51C252.35 131.369 252.19 131.338 252.042 131.275C251.894 131.213 251.76 131.121 251.648 131.005C251.537 130.89 251.45 130.752 251.393 130.602C251.336 130.452 251.31 130.292 251.316 130.131L252.145 113.188C252.17 112.855 252.319 112.542 252.563 112.313C252.807 112.084 253.128 111.955 253.463 111.951H260.886C261.047 111.95 261.206 111.982 261.354 112.044C261.502 112.107 261.636 112.198 261.748 112.314C261.859 112.43 261.946 112.567 262.003 112.717C262.06 112.867 262.086 113.028 262.08 113.188L261.282 130.112C261.261 130.455 261.11 130.776 260.859 131.01C260.607 131.244 260.276 131.372 259.933 131.368Z" fill="#6C63FF"/>
<path opacity="0.3" d="M274.797 131.368H267.375C267.214 131.369 267.055 131.338 266.907 131.275C266.759 131.213 266.626 131.121 266.515 131.005C266.404 130.889 266.317 130.752 266.261 130.602C266.204 130.452 266.179 130.291 266.187 130.131L267.084 111.735C267.109 111.401 267.258 111.089 267.502 110.86C267.746 110.63 268.067 110.501 268.401 110.498H275.824C275.985 110.497 276.144 110.528 276.292 110.591C276.441 110.653 276.574 110.745 276.686 110.861C276.798 110.976 276.885 111.113 276.942 111.264C276.999 111.414 277.025 111.574 277.018 111.735L276.127 130.113C276.11 130.453 275.962 130.773 275.714 131.007C275.466 131.241 275.138 131.37 274.797 131.368Z" fill="#6C63FF"/>
<path d="M289.656 131.368H282.233C282.072 131.369 281.913 131.338 281.765 131.275C281.617 131.213 281.483 131.121 281.371 131.005C281.259 130.89 281.173 130.753 281.115 130.602C281.058 130.452 281.032 130.292 281.039 130.131L282.214 106.124C282.238 105.79 282.386 105.477 282.631 105.248C282.875 105.018 283.197 104.89 283.532 104.887H290.955C291.116 104.886 291.275 104.918 291.423 104.98C291.571 105.043 291.705 105.134 291.817 105.25C291.928 105.366 292.015 105.503 292.072 105.653C292.129 105.803 292.155 105.964 292.149 106.124L290.973 130.113C290.953 130.45 290.806 130.767 290.561 131C290.317 131.232 289.993 131.364 289.656 131.368Z" fill="#6C63FF"/>
<path d="M287.72 102.308L288.425 101.182C288.464 101.121 288.485 101.051 288.488 100.979C288.49 100.906 288.473 100.835 288.438 100.772C288.403 100.708 288.352 100.655 288.29 100.619C288.228 100.582 288.157 100.563 288.084 100.563H286.779C286.706 100.561 286.633 100.578 286.569 100.614C286.505 100.65 286.452 100.702 286.416 100.766C286.38 100.83 286.362 100.902 286.363 100.975C286.365 101.049 286.387 101.12 286.427 101.182L287.045 102.308C287.081 102.365 287.13 102.413 287.189 102.446C287.248 102.479 287.315 102.496 287.382 102.496C287.45 102.496 287.516 102.479 287.575 102.446C287.634 102.413 287.684 102.365 287.72 102.308Z" fill="#263238"/>
<path opacity="0.3" d="M304.514 131.368H297.091C296.931 131.369 296.771 131.338 296.623 131.275C296.475 131.213 296.341 131.121 296.23 131.005C296.118 130.89 296.031 130.753 295.974 130.602C295.917 130.452 295.891 130.292 295.898 130.131L296.887 109.91C296.912 109.576 297.061 109.264 297.305 109.035C297.549 108.806 297.87 108.677 298.205 108.673H305.628C305.788 108.672 305.948 108.704 306.096 108.766C306.244 108.828 306.378 108.92 306.49 109.036C306.601 109.151 306.688 109.289 306.745 109.439C306.802 109.589 306.828 109.749 306.822 109.91L305.819 130.113C305.801 130.448 305.656 130.764 305.414 130.997C305.172 131.23 304.85 131.363 304.514 131.368Z" fill="#6C63FF"/>
<path opacity="0.1" d="M305.163 135.402H221.773C221.72 135.403 221.668 135.392 221.619 135.372C221.57 135.352 221.526 135.321 221.489 135.283C221.452 135.245 221.424 135.199 221.406 135.149C221.388 135.099 221.38 135.046 221.384 134.993C221.391 134.883 221.44 134.78 221.52 134.705C221.601 134.629 221.706 134.586 221.817 134.585H305.2C305.253 134.584 305.306 134.594 305.355 134.615C305.404 134.635 305.448 134.665 305.485 134.704C305.521 134.742 305.55 134.788 305.568 134.837C305.586 134.887 305.593 134.94 305.59 134.993C305.585 135.103 305.538 135.207 305.459 135.283C305.379 135.359 305.273 135.402 305.163 135.402Z" fill="#263238"/>
<path opacity="0.1" d="M311.101 207.725L316.47 98.0519C316.475 97.9468 316.52 97.8477 316.596 97.7751C316.672 97.7025 316.773 97.6621 316.879 97.6622H316.916C316.966 97.6612 317.016 97.6708 317.063 97.6902C317.11 97.7097 317.152 97.7387 317.187 97.7754C317.222 97.812 317.249 97.8555 317.266 97.9031C317.283 97.9507 317.29 98.0014 317.287 98.0519L311.924 207.725C311.918 207.83 311.872 207.929 311.797 208.002C311.721 208.076 311.621 208.118 311.515 208.121H311.472C311.422 208.12 311.372 208.109 311.325 208.089C311.279 208.068 311.237 208.038 311.203 208.002C311.168 207.965 311.141 207.921 311.124 207.874C311.106 207.826 311.099 207.775 311.101 207.725Z" fill="#263238"/>
<path d="M338.635 118.478C338.07 121.449 338.597 124.524 340.119 127.138L336.445 129.426C334.431 125.953 333.731 121.873 334.472 117.927C335.234 113.888 337.331 110.221 340.425 107.515C343.52 104.809 347.433 103.219 351.538 103.001V107.22C348.435 107.372 345.473 108.566 343.132 110.609C340.791 112.652 339.207 115.424 338.635 118.478Z" fill="#6C63FF"/>
<path opacity="0.3" d="M367.676 113.628L363.693 115.236C362.929 113.135 361.602 111.284 359.856 109.888C358.11 108.491 356.013 107.602 353.796 107.319C353.05 107.216 352.296 107.181 351.544 107.213V102.995C355.012 102.834 358.441 103.776 361.34 105.687C364.239 107.597 366.457 110.378 367.676 113.628Z" fill="#6C63FF"/>
<path d="M368.381 122.461C366.674 131.826 357.618 138.501 348.315 137.257C345.87 136.943 343.53 136.074 341.473 134.716C339.416 133.359 337.696 131.55 336.444 129.426L340.119 127.162C341.06 128.767 342.357 130.135 343.91 131.16C345.463 132.185 347.23 132.841 349.076 133.076C352.541 133.484 356.031 132.561 358.842 130.494C361.653 128.427 363.574 125.371 364.218 121.942C364.637 119.71 364.449 117.407 363.674 115.273L367.658 113.665C368.673 116.481 368.923 119.517 368.381 122.461Z" fill="#263238"/>
<path d="M338.529 105.747C338.487 105.748 338.444 105.74 338.405 105.724C338.366 105.708 338.33 105.684 338.3 105.654L335.56 102.766H326.145C326.063 102.766 325.985 102.733 325.927 102.675C325.869 102.617 325.836 102.538 325.836 102.456C325.836 102.374 325.869 102.296 325.927 102.238C325.985 102.18 326.063 102.147 326.145 102.147H335.69C335.732 102.147 335.773 102.156 335.812 102.173C335.85 102.19 335.884 102.215 335.912 102.246L338.752 105.227C338.795 105.27 338.825 105.325 338.837 105.385C338.849 105.445 338.843 105.507 338.818 105.564C338.794 105.62 338.754 105.667 338.702 105.7C338.651 105.733 338.59 105.749 338.529 105.747Z" fill="#263238"/>
<path opacity="0.3" d="M356.437 154.639C353.853 153.04 350.775 152.435 347.777 152.938L347.319 148.763C351.282 148.119 355.345 148.918 358.769 151.014C365.691 155.307 368.308 164.177 364.955 171.94L361.089 170.431C363.606 164.685 361.769 157.942 356.437 154.639Z" fill="#6C63FF"/>
<path d="M348.049 182.976L348.333 178.751C350.651 178.774 352.937 178.209 354.977 177.109C357.017 176.008 358.745 174.409 360 172.46C360.422 171.816 360.788 171.138 361.095 170.431L364.961 171.94C364.556 172.879 364.072 173.781 363.513 174.637C361.846 177.217 359.555 179.334 356.851 180.792C354.148 182.249 351.12 183.001 348.049 182.976Z" fill="#263238"/>
<path d="M339.6 180.52C331.744 175.652 329.616 164.982 334.88 156.891C336.273 154.739 338.103 152.904 340.25 151.504C342.397 150.104 344.814 149.17 347.344 148.763L347.802 152.938C345.891 153.243 344.066 153.946 342.446 155.002C340.825 156.058 339.444 157.444 338.393 159.068C334.397 165.217 335.993 173.203 341.956 176.902C343.873 178.09 346.079 178.732 348.334 178.757L348.049 182.982C345.062 182.942 342.141 182.091 339.6 180.52Z" fill="#6C63FF"/>
<path d="M336.297 151.329C336.212 151.327 336.132 151.291 336.074 151.23L333.327 148.342H323.913C323.831 148.342 323.752 148.309 323.694 148.251C323.636 148.193 323.604 148.114 323.604 148.032C323.604 147.95 323.636 147.872 323.694 147.814C323.752 147.756 323.831 147.723 323.913 147.723H333.464C333.548 147.726 333.628 147.761 333.686 147.822L336.519 150.804C336.548 150.832 336.571 150.867 336.587 150.904C336.603 150.942 336.611 150.982 336.611 151.023C336.611 151.064 336.603 151.104 336.587 151.142C336.571 151.18 336.548 151.214 336.519 151.243C336.458 151.298 336.379 151.329 336.297 151.329Z" fill="#263238"/>
<path d="M328.125 198.341H324.995C324.572 198.348 324.167 198.515 323.861 198.807C323.555 199.099 323.37 199.496 323.344 199.919L323.189 203.055C323.177 203.259 323.207 203.463 323.278 203.655C323.348 203.847 323.457 204.022 323.598 204.17C323.739 204.318 323.909 204.435 324.097 204.515C324.285 204.594 324.488 204.634 324.692 204.632H327.822C328.246 204.627 328.653 204.461 328.96 204.169C329.268 203.876 329.453 203.478 329.48 203.055L329.635 199.919C329.646 199.714 329.615 199.51 329.544 199.318C329.472 199.126 329.363 198.951 329.221 198.803C329.08 198.656 328.91 198.538 328.721 198.459C328.533 198.379 328.33 198.339 328.125 198.341Z" fill="#6C63FF"/>
<path d="M345.68 198.342H342.55C342.122 198.347 341.712 198.516 341.404 198.814C341.096 199.112 340.913 199.516 340.892 199.944L340.744 203.08C340.732 203.283 340.762 203.487 340.832 203.678C340.902 203.87 341.01 204.045 341.151 204.193C341.291 204.34 341.46 204.458 341.648 204.538C341.835 204.618 342.037 204.658 342.241 204.657H345.408C345.831 204.65 346.236 204.484 346.542 204.192C346.848 203.899 347.033 203.502 347.059 203.08L347.214 199.944C347.23 199.735 347.201 199.525 347.131 199.329C347.06 199.132 346.949 198.952 346.804 198.801C346.66 198.649 346.485 198.53 346.291 198.451C346.097 198.372 345.889 198.335 345.68 198.342Z" fill="#263238"/>
<path opacity="0.3" d="M363.241 198.341H360.105C359.681 198.348 359.276 198.515 358.97 198.807C358.664 199.099 358.479 199.496 358.453 199.919L358.298 203.055C358.287 203.258 358.317 203.462 358.387 203.653C358.457 203.845 358.565 204.02 358.705 204.168C358.846 204.316 359.015 204.433 359.202 204.513C359.39 204.593 359.592 204.633 359.795 204.632H362.932C363.358 204.626 363.767 204.458 364.074 204.162C364.38 203.865 364.563 203.463 364.583 203.036L364.738 199.9C364.747 199.698 364.715 199.496 364.644 199.307C364.573 199.118 364.464 198.945 364.324 198.799C364.184 198.654 364.016 198.538 363.829 198.459C363.643 198.38 363.443 198.34 363.241 198.341Z" fill="#6C63FF"/>
<path d="M229.916 159.723L229.873 160.572H226.668C226.719 160.251 226.838 159.948 227.026 159.662C227.214 159.374 227.576 158.992 228.111 158.518C228.543 158.134 228.808 157.874 228.909 157.738C229.044 157.549 229.116 157.363 229.125 157.179C229.135 156.975 229.088 156.819 228.983 156.711C228.88 156.6 228.732 156.545 228.539 156.545C228.348 156.545 228.193 156.602 228.075 156.717C227.956 156.832 227.881 157.023 227.851 157.289L226.944 157.198C227.023 156.696 227.212 156.335 227.509 156.116C227.806 155.897 228.17 155.788 228.599 155.788C229.07 155.788 229.434 155.915 229.69 156.168C229.946 156.422 230.065 156.737 230.046 157.114C230.035 157.328 229.986 157.533 229.898 157.728C229.813 157.921 229.681 158.123 229.503 158.336C229.386 158.477 229.176 158.679 228.874 158.943C228.573 159.208 228.38 159.383 228.298 159.47C228.218 159.557 228.152 159.641 228.1 159.723H229.916ZM230.569 159.346L231.485 159.252C231.501 159.458 231.569 159.622 231.691 159.743C231.813 159.862 231.958 159.922 232.125 159.922C232.316 159.922 232.481 159.845 232.621 159.691C232.761 159.535 232.839 159.301 232.855 158.989C232.869 158.696 232.814 158.478 232.689 158.332C232.566 158.185 232.4 158.111 232.189 158.111C231.927 158.111 231.686 158.227 231.466 158.459L230.729 158.352L231.322 155.872H233.74L233.697 156.727H231.972L231.789 157.536C231.998 157.434 232.208 157.384 232.421 157.384C232.827 157.384 233.163 157.531 233.43 157.825C233.698 158.12 233.82 158.503 233.796 158.973C233.776 159.365 233.645 159.715 233.402 160.022C233.071 160.443 232.63 160.653 232.079 160.653C231.638 160.653 231.285 160.535 231.019 160.299C230.753 160.062 230.603 159.745 230.569 159.346ZM234.399 160.572L234.445 159.658H235.359L235.314 160.572H234.399ZM236.133 159.346L237.049 159.252C237.065 159.458 237.134 159.622 237.255 159.743C237.377 159.862 237.522 159.922 237.689 159.922C237.88 159.922 238.045 159.845 238.185 159.691C238.326 159.535 238.403 159.301 238.419 158.989C238.434 158.696 238.378 158.478 238.253 158.332C238.131 158.185 237.964 158.111 237.754 158.111C237.491 158.111 237.25 158.227 237.03 158.459L236.294 158.352L236.886 155.872H239.304L239.261 156.727H237.536L237.353 157.536C237.562 157.434 237.773 157.384 237.985 157.384C238.391 157.384 238.727 157.531 238.995 157.825C239.262 158.12 239.384 158.503 239.36 158.973C239.341 159.365 239.209 159.715 238.966 160.022C238.635 160.443 238.194 160.653 237.643 160.653C237.202 160.653 236.849 160.535 236.583 160.299C236.318 160.062 236.167 159.745 236.133 159.346ZM241.561 160.572L241.609 159.613H239.657L239.697 158.813L241.918 155.788H242.686L242.534 158.81H243.127L243.086 159.613H242.494L242.446 160.572H241.561ZM241.649 158.81L241.731 157.182L240.553 158.81H241.649ZM243.507 158.181C243.521 157.897 243.594 157.686 243.725 157.549C243.858 157.412 244.031 157.343 244.245 157.343C244.466 157.343 244.635 157.412 244.753 157.549C244.872 157.685 244.924 157.895 244.91 158.181C244.896 158.466 244.822 158.676 244.69 158.813C244.558 158.951 244.386 159.019 244.172 159.019C243.951 159.019 243.781 158.951 243.662 158.816C243.544 158.678 243.493 158.467 243.507 158.181ZM243.982 158.177C243.972 158.383 243.989 158.522 244.033 158.593C244.066 158.645 244.115 158.671 244.179 158.671C244.244 158.671 244.296 158.645 244.334 158.593C244.384 158.522 244.414 158.383 244.424 158.177C244.435 157.97 244.419 157.833 244.376 157.763C244.342 157.71 244.293 157.683 244.228 157.683C244.164 157.683 244.113 157.709 244.075 157.761C244.023 157.832 243.993 157.97 243.982 158.177ZM244.541 160.693H244.091L245.951 157.343H246.389L244.541 160.693ZM245.567 159.859C245.582 159.575 245.654 159.364 245.785 159.227C245.918 159.09 246.093 159.021 246.31 159.021C246.528 159.021 246.696 159.09 246.813 159.227C246.932 159.364 246.984 159.575 246.97 159.859C246.956 160.145 246.882 160.357 246.75 160.494C246.619 160.631 246.446 160.699 246.232 160.699C246.011 160.699 245.841 160.631 245.722 160.494C245.605 160.357 245.553 160.145 245.567 159.859ZM246.042 159.857C246.032 160.064 246.049 160.201 246.093 160.271C246.127 160.324 246.175 160.351 246.239 160.351C246.304 160.351 246.355 160.325 246.392 160.273C246.443 160.202 246.474 160.064 246.485 159.857C246.495 159.651 246.479 159.512 246.436 159.441C246.402 159.389 246.353 159.363 246.288 159.363C246.223 159.363 246.172 159.389 246.135 159.441C246.083 159.512 246.053 159.651 246.042 159.857Z" fill="#263238"/>
<path d="M253.704 170.74H253.63C253.59 170.732 253.553 170.715 253.519 170.692C253.486 170.668 253.458 170.638 253.437 170.603C253.415 170.569 253.401 170.53 253.395 170.49C253.389 170.45 253.391 170.409 253.401 170.369C255.492 161.579 259.927 152.573 265.154 152.282C268.649 152.084 270.641 155.004 272.948 158.375C274.618 160.806 276.505 163.559 279.27 165.637C281.175 167.066 283.117 167.437 285.047 166.745C289.346 165.192 293.46 158.196 295.786 148.49C295.795 148.45 295.813 148.412 295.838 148.378C295.862 148.344 295.893 148.315 295.929 148.293C295.964 148.272 296.004 148.257 296.045 148.251C296.086 148.244 296.129 148.246 296.169 148.255C296.21 148.265 296.248 148.283 296.282 148.307C296.316 148.332 296.344 148.363 296.366 148.398C296.388 148.434 296.403 148.474 296.409 148.515C296.416 148.556 296.414 148.598 296.404 148.639C293.998 158.691 289.835 165.681 285.27 167.326C283.13 168.093 280.989 167.691 278.911 166.132C276.066 163.998 274.148 161.184 272.453 158.709C270.152 155.357 268.346 152.715 265.203 152.882C260.323 153.154 256.086 161.926 254.069 170.493C254.062 170.533 254.046 170.572 254.024 170.606C254.001 170.641 253.972 170.67 253.938 170.693C253.904 170.716 253.866 170.732 253.826 170.74C253.786 170.749 253.744 170.749 253.704 170.74Z" fill="#6C63FF"/>
<path opacity="0.1" d="M299.014 175.021H224.074C223.434 175.026 222.8 174.899 222.21 174.649C221.621 174.398 221.089 174.03 220.647 173.566C220.206 173.103 219.864 172.554 219.642 171.953C219.421 171.352 219.325 170.712 219.361 170.073L220.456 148.249C220.529 146.923 221.104 145.673 222.065 144.755C223.025 143.836 224.298 143.316 225.627 143.301H300.536C301.176 143.297 301.811 143.423 302.4 143.674C302.99 143.924 303.522 144.292 303.963 144.756C304.405 145.219 304.747 145.769 304.968 146.369C305.189 146.97 305.285 147.61 305.25 148.249L304.186 170.067C304.113 171.395 303.539 172.645 302.579 173.565C301.618 174.486 300.344 175.006 299.014 175.021ZM225.596 143.938C224.431 143.951 223.313 144.405 222.469 145.209C221.624 146.012 221.115 147.105 221.043 148.268L219.979 170.085C219.943 170.643 220.022 171.203 220.211 171.729C220.401 172.256 220.697 172.737 221.082 173.144C221.466 173.55 221.93 173.873 222.445 174.092C222.96 174.31 223.515 174.421 224.074 174.415H299.014C300.18 174.402 301.297 173.948 302.141 173.145C302.986 172.341 303.495 171.248 303.567 170.085L304.637 148.268C304.672 147.71 304.592 147.15 304.401 146.624C304.21 146.098 303.913 145.617 303.528 145.211C303.144 144.805 302.679 144.482 302.165 144.263C301.65 144.044 301.095 143.934 300.536 143.938H225.596Z" fill="#263238"/>
<path opacity="0.1" d="M240.288 149.505H228.176C227.992 149.505 227.809 149.468 227.64 149.395C227.471 149.323 227.318 149.216 227.191 149.082C227.064 148.949 226.966 148.79 226.902 148.617C226.839 148.444 226.811 148.26 226.821 148.076C226.842 147.7 227.005 147.345 227.277 147.084C227.549 146.823 227.91 146.676 228.287 146.672H240.393C240.578 146.671 240.761 146.707 240.931 146.78C241.101 146.852 241.255 146.958 241.382 147.092C241.51 147.226 241.608 147.385 241.672 147.558C241.736 147.732 241.764 147.916 241.754 148.101C241.732 148.477 241.569 148.83 241.297 149.091C241.025 149.351 240.664 149.499 240.288 149.505ZM228.287 147.29C228.07 147.295 227.863 147.38 227.706 147.53C227.549 147.68 227.454 147.884 227.44 148.101C227.432 148.202 227.446 148.304 227.48 148.4C227.514 148.496 227.568 148.584 227.638 148.658C227.708 148.729 227.792 148.786 227.884 148.826C227.976 148.865 228.076 148.886 228.176 148.886H240.288C240.504 148.881 240.711 148.795 240.868 148.645C241.025 148.495 241.12 148.292 241.135 148.076C241.142 147.974 241.127 147.872 241.092 147.776C241.056 147.68 241.002 147.593 240.931 147.519C240.862 147.446 240.779 147.387 240.686 147.348C240.594 147.308 240.494 147.289 240.393 147.29H228.287Z" fill="#263238"/>
<path d="M229.302 167.901H226.16L226.005 171.044H229.147L229.302 167.901Z" fill="#6C63FF"/>
<path opacity="0.3" d="M232.747 208.09H226.338C226.061 208.092 225.787 208.037 225.531 207.929C225.276 207.821 225.046 207.662 224.855 207.462C224.663 207.261 224.515 207.023 224.419 206.763C224.323 206.503 224.282 206.226 224.297 205.95L224.612 199.535C224.647 198.96 224.897 198.419 225.314 198.021C225.73 197.623 226.282 197.397 226.858 197.389H233.272C233.55 197.387 233.825 197.441 234.08 197.55C234.335 197.658 234.566 197.818 234.757 198.02C234.947 198.221 235.095 198.459 235.19 198.72C235.284 198.981 235.325 199.258 235.308 199.535L234.998 205.95C234.961 206.524 234.709 207.064 234.291 207.46C233.874 207.857 233.322 208.082 232.747 208.09Z" fill="#6C63FF"/>
<path opacity="0.1" d="M257.336 204.589H240.801C240.561 204.591 240.323 204.544 240.101 204.45C239.88 204.356 239.68 204.218 239.515 204.044C239.349 203.87 239.22 203.664 239.137 203.439C239.054 203.213 239.019 202.973 239.032 202.733C239.056 202.237 239.268 201.768 239.626 201.423C239.983 201.079 240.459 200.883 240.956 200.877H257.484C257.724 200.876 257.962 200.924 258.184 201.018C258.405 201.112 258.605 201.25 258.771 201.424C258.937 201.597 259.066 201.803 259.15 202.028C259.234 202.253 259.271 202.493 259.259 202.733C259.236 203.229 259.023 203.698 258.666 204.043C258.308 204.388 257.832 204.583 257.336 204.589ZM240.956 201.496C240.622 201.501 240.303 201.631 240.06 201.86C239.817 202.089 239.669 202.4 239.644 202.733C239.637 202.89 239.661 203.047 239.716 203.195C239.77 203.343 239.853 203.478 239.96 203.593C240.069 203.706 240.2 203.795 240.344 203.856C240.489 203.916 240.644 203.947 240.801 203.946H257.336C257.669 203.943 257.99 203.814 258.232 203.584C258.474 203.355 258.62 203.042 258.641 202.708C258.652 202.551 258.629 202.393 258.575 202.245C258.521 202.097 258.436 201.962 258.325 201.849C258.217 201.734 258.087 201.643 257.942 201.582C257.797 201.52 257.641 201.489 257.484 201.49L240.956 201.496Z" fill="#263238"/>
<path d="M229.735 204.589C229.694 204.587 229.654 204.578 229.617 204.56C229.58 204.543 229.547 204.519 229.52 204.489C229.492 204.46 229.471 204.425 229.456 204.386C229.442 204.348 229.436 204.308 229.438 204.267L229.574 201.527C229.574 201.486 229.582 201.445 229.599 201.408C229.615 201.37 229.639 201.337 229.67 201.309C229.7 201.282 229.736 201.261 229.775 201.249C229.814 201.236 229.855 201.232 229.895 201.236C229.936 201.238 229.976 201.247 230.013 201.264C230.05 201.281 230.083 201.305 230.111 201.335C230.138 201.365 230.16 201.4 230.174 201.438C230.188 201.477 230.194 201.517 230.192 201.558L230.056 204.298C230.052 204.379 230.015 204.455 229.955 204.509C229.895 204.564 229.816 204.592 229.735 204.589Z" fill="#6C63FF"/>
<path d="M228.553 202.776C228.469 202.774 228.389 202.738 228.331 202.678C228.302 202.649 228.279 202.615 228.263 202.577C228.247 202.539 228.239 202.499 228.239 202.458C228.239 202.417 228.247 202.377 228.263 202.339C228.279 202.301 228.302 202.267 228.331 202.238L229.654 201.001C229.714 200.944 229.794 200.913 229.877 200.915C229.959 200.92 230.036 200.955 230.094 201.014L231.294 202.251C231.35 202.311 231.381 202.391 231.378 202.473C231.376 202.555 231.341 202.633 231.281 202.69C231.221 202.746 231.142 202.777 231.059 202.775C230.977 202.772 230.899 202.737 230.842 202.678L229.859 201.638L228.758 202.69C228.701 202.741 228.629 202.772 228.553 202.776Z" fill="#6C63FF"/>
<path d="M226.717 188.624L226.786 187.263C226.366 187.141 226.063 186.958 225.876 186.713C225.691 186.466 225.607 186.167 225.625 185.816C225.642 185.461 225.769 185.163 226.004 184.923C226.242 184.68 226.549 184.54 226.923 184.503L226.94 184.182H227.411L227.395 184.503C227.738 184.545 228.007 184.663 228.201 184.858C228.395 185.05 228.512 185.309 228.552 185.634L227.724 185.742C227.687 185.486 227.565 185.313 227.359 185.222L227.296 186.492C227.809 186.633 228.155 186.816 228.332 187.042C228.51 187.265 228.59 187.552 228.572 187.903C228.553 188.295 228.417 188.625 228.165 188.894C227.915 189.163 227.577 189.327 227.151 189.388L227.121 189.996H226.649L226.678 189.404C226.305 189.359 226.008 189.219 225.785 188.985C225.562 188.751 225.429 188.421 225.386 187.994L226.239 187.903C226.265 188.076 226.323 188.226 226.412 188.351C226.501 188.477 226.603 188.568 226.717 188.624ZM226.888 185.212C226.758 185.255 226.652 185.329 226.571 185.433C226.49 185.537 226.446 185.652 226.44 185.777C226.434 185.892 226.464 185.999 226.528 186.099C226.593 186.197 226.694 186.276 226.832 186.336L226.888 185.212ZM227.187 188.67C227.351 188.639 227.487 188.565 227.595 188.445C227.703 188.324 227.761 188.182 227.769 188.02C227.777 187.875 227.739 187.75 227.658 187.646C227.579 187.54 227.443 187.459 227.25 187.402L227.187 188.67ZM229.114 188.065L230.005 187.958C230.022 188.183 230.089 188.356 230.207 188.475C230.324 188.594 230.471 188.653 230.647 188.653C230.835 188.653 230.997 188.582 231.132 188.439C231.27 188.296 231.345 188.103 231.357 187.86C231.368 187.631 231.315 187.449 231.198 187.315C231.082 187.18 230.934 187.113 230.756 187.113C230.639 187.113 230.498 187.136 230.333 187.181L230.471 186.437C230.718 186.444 230.91 186.39 231.045 186.278C231.181 186.163 231.254 186.011 231.263 185.823C231.271 185.663 231.23 185.535 231.139 185.439C231.049 185.344 230.924 185.296 230.766 185.296C230.61 185.296 230.473 185.351 230.357 185.459C230.241 185.567 230.166 185.725 230.132 185.933L229.296 185.79C229.369 185.502 229.469 185.273 229.594 185.101C229.722 184.928 229.894 184.793 230.109 184.695C230.327 184.595 230.567 184.546 230.829 184.546C231.278 184.546 231.631 184.689 231.888 184.975C232.1 185.209 232.198 185.473 232.184 185.768C232.163 186.186 231.917 186.519 231.447 186.769C231.717 186.827 231.929 186.958 232.081 187.162C232.236 187.365 232.306 187.611 232.292 187.899C232.271 188.318 232.1 188.674 231.78 188.969C231.459 189.263 231.071 189.411 230.615 189.411C230.184 189.411 229.832 189.287 229.56 189.04C229.288 188.791 229.14 188.466 229.114 188.065ZM235.923 188.481L235.881 189.329H232.676C232.727 189.009 232.846 188.705 233.034 188.419C233.222 188.131 233.584 187.75 234.119 187.276C234.551 186.892 234.816 186.632 234.916 186.496C235.052 186.307 235.124 186.121 235.133 185.937C235.143 185.733 235.096 185.577 234.99 185.469C234.888 185.358 234.74 185.303 234.546 185.303C234.356 185.303 234.201 185.36 234.082 185.475C233.964 185.59 233.889 185.781 233.858 186.047L232.952 185.956C233.031 185.453 233.22 185.093 233.517 184.874C233.814 184.655 234.178 184.546 234.607 184.546C235.078 184.546 235.441 184.672 235.698 184.926C235.954 185.179 236.073 185.495 236.054 185.872C236.043 186.086 235.994 186.291 235.906 186.486C235.82 186.679 235.689 186.881 235.511 187.094C235.394 187.234 235.184 187.437 234.882 187.701C234.58 187.966 234.388 188.141 234.306 188.228C234.226 188.314 234.16 188.399 234.108 188.481H235.923ZM236.533 188.065L237.424 187.958C237.441 188.183 237.508 188.356 237.626 188.475C237.743 188.594 237.89 188.653 238.066 188.653C238.254 188.653 238.416 188.582 238.551 188.439C238.689 188.296 238.763 188.103 238.776 187.86C238.787 187.631 238.734 187.449 238.617 187.315C238.5 187.18 238.353 187.113 238.175 187.113C238.058 187.113 237.917 187.136 237.752 187.181L237.89 186.437C238.137 186.444 238.328 186.39 238.464 186.278C238.6 186.163 238.673 186.011 238.682 185.823C238.69 185.663 238.649 185.535 238.558 185.439C238.468 185.344 238.343 185.296 238.185 185.296C238.028 185.296 237.892 185.351 237.776 185.459C237.66 185.567 237.585 185.725 237.551 185.933L236.715 185.79C236.788 185.502 236.888 185.273 237.013 185.101C237.141 184.928 237.313 184.793 237.528 184.695C237.746 184.595 237.986 184.546 238.248 184.546C238.697 184.546 239.05 184.689 239.307 184.975C239.519 185.209 239.617 185.473 239.603 185.768C239.582 186.186 239.336 186.519 238.866 186.769C239.136 186.827 239.348 186.958 239.5 187.162C239.655 187.365 239.725 187.611 239.711 187.899C239.69 188.318 239.519 188.674 239.198 188.969C238.878 189.263 238.49 189.411 238.034 189.411C237.603 189.411 237.251 189.287 236.979 189.04C236.707 188.791 236.559 188.466 236.533 188.065ZM240.43 188.416H241.344L241.312 189.069C241.299 189.334 241.265 189.542 241.212 189.693C241.159 189.847 241.065 189.985 240.931 190.106C240.799 190.227 240.634 190.323 240.435 190.392L240.275 190.015C240.463 189.954 240.598 189.871 240.682 189.765C240.765 189.659 240.813 189.514 240.827 189.329H240.384L240.43 188.416ZM243.851 184.546C244.314 184.546 244.666 184.71 244.91 185.04C245.201 185.43 245.324 186.076 245.279 186.98C245.234 187.881 245.045 188.529 244.713 188.923C244.439 189.248 244.07 189.411 243.608 189.411C243.144 189.411 242.779 189.233 242.512 188.878C242.246 188.52 242.136 187.884 242.181 186.97C242.226 186.073 242.415 185.427 242.747 185.033C243.021 184.708 243.389 184.546 243.851 184.546ZM243.814 185.303C243.703 185.303 243.603 185.339 243.512 185.41C243.422 185.479 243.348 185.605 243.292 185.787C243.217 186.023 243.166 186.421 243.138 186.98C243.11 187.539 243.119 187.923 243.164 188.133C243.21 188.341 243.274 188.48 243.355 188.549C243.438 188.619 243.535 188.653 243.646 188.653C243.757 188.653 243.857 188.619 243.947 188.549C244.038 188.478 244.111 188.351 244.168 188.169C244.243 187.935 244.294 187.539 244.322 186.98C244.35 186.421 244.341 186.037 244.295 185.829C244.249 185.619 244.184 185.479 244.101 185.41C244.02 185.339 243.924 185.303 243.814 185.303ZM245.969 185.478L246.011 184.63H249.138L249.105 185.293C248.834 185.547 248.553 185.911 248.263 186.385C247.972 186.86 247.743 187.364 247.575 187.899C247.41 188.432 247.318 188.909 247.299 189.329H246.417C246.465 188.671 246.634 187.999 246.925 187.315C247.217 186.63 247.591 186.018 248.048 185.478H245.969ZM250.398 186.759C250.167 186.659 250.001 186.523 249.901 186.349C249.804 186.174 249.76 185.982 249.771 185.774C249.789 185.419 249.927 185.125 250.186 184.893C250.447 184.662 250.806 184.546 251.264 184.546C251.717 184.546 252.063 184.662 252.301 184.893C252.541 185.125 252.652 185.419 252.634 185.774C252.623 185.995 252.556 186.192 252.432 186.366C252.309 186.537 252.14 186.668 251.928 186.759C252.187 186.865 252.38 187.02 252.506 187.224C252.635 187.427 252.693 187.662 252.679 187.929C252.657 188.369 252.499 188.726 252.203 189.001C251.909 189.276 251.529 189.414 251.063 189.414C250.629 189.414 250.273 189.3 249.996 189.073C249.669 188.804 249.517 188.436 249.541 187.968C249.554 187.71 249.629 187.474 249.768 187.259C249.907 187.043 250.117 186.876 250.398 186.759ZM250.633 185.839C250.624 186.021 250.668 186.163 250.765 186.265C250.864 186.367 250.999 186.418 251.17 186.418C251.344 186.418 251.485 186.367 251.594 186.265C251.704 186.161 251.763 186.018 251.772 185.836C251.781 185.665 251.735 185.528 251.636 185.426C251.54 185.322 251.407 185.27 251.237 185.27C251.062 185.27 250.919 185.322 250.81 185.426C250.701 185.53 250.642 185.668 250.633 185.839ZM250.446 187.88C250.434 188.131 250.488 188.327 250.609 188.468C250.732 188.609 250.89 188.679 251.083 188.679C251.272 188.679 251.432 188.612 251.562 188.478C251.692 188.341 251.764 188.145 251.777 187.89C251.788 187.667 251.734 187.488 251.615 187.354C251.496 187.217 251.34 187.149 251.147 187.149C250.923 187.149 250.752 187.226 250.634 187.38C250.518 187.533 250.455 187.7 250.446 187.88ZM253.39 189.329L253.436 188.416H254.35L254.305 189.329H253.39ZM256.835 184.546C257.297 184.546 257.65 184.71 257.893 185.04C258.184 185.43 258.307 186.076 258.262 186.98C258.217 187.881 258.028 188.529 257.696 188.923C257.422 189.248 257.053 189.411 256.591 189.411C256.127 189.411 255.762 189.233 255.495 188.878C255.229 188.52 255.119 187.884 255.165 186.97C255.209 186.073 255.398 185.427 255.73 185.033C256.004 184.708 256.373 184.546 256.835 184.546ZM256.797 185.303C256.686 185.303 256.586 185.339 256.495 185.41C256.405 185.479 256.332 185.605 256.275 185.787C256.2 186.023 256.149 186.421 256.121 186.98C256.093 187.539 256.102 187.923 256.148 188.133C256.194 188.341 256.257 188.48 256.338 188.549C256.422 188.619 256.519 188.653 256.629 188.653C256.74 188.653 256.84 188.619 256.931 188.549C257.021 188.478 257.094 188.351 257.151 188.169C257.226 187.935 257.277 187.539 257.305 186.98C257.333 186.421 257.324 186.037 257.278 185.829C257.232 185.619 257.168 185.479 257.084 185.41C257.003 185.339 256.907 185.303 256.797 185.303ZM260.544 184.546C261.006 184.546 261.359 184.71 261.603 185.04C261.894 185.43 262.016 186.076 261.971 186.98C261.926 187.881 261.738 188.529 261.406 188.923C261.131 189.248 260.763 189.411 260.301 189.411C259.837 189.411 259.471 189.233 259.205 188.878C258.939 188.52 258.828 187.884 258.874 186.97C258.919 186.073 259.107 185.427 259.439 185.033C259.714 184.708 260.082 184.546 260.544 184.546ZM260.506 185.303C260.396 185.303 260.295 185.339 260.205 185.41C260.115 185.479 260.041 185.605 259.984 185.787C259.909 186.023 259.858 186.421 259.83 186.98C259.802 187.539 259.811 187.923 259.857 188.133C259.903 188.341 259.967 188.48 260.048 188.549C260.131 188.619 260.228 188.653 260.339 188.653C260.449 188.653 260.55 188.619 260.64 188.549C260.73 188.478 260.804 188.351 260.861 188.169C260.935 187.935 260.987 187.539 261.015 186.98C261.043 186.421 261.034 186.037 260.988 185.829C260.942 185.619 260.877 185.479 260.794 185.41C260.713 185.339 260.617 185.303 260.506 185.303Z" fill="#263238"/>
<path opacity="0.4" d="M275.033 197.389H268.625C268.048 197.397 267.496 197.623 267.078 198.021C266.661 198.419 266.409 198.96 266.373 199.535L266.064 205.95C266.048 206.226 266.089 206.503 266.184 206.763C266.279 207.023 266.427 207.261 266.617 207.461C266.808 207.662 267.038 207.821 267.293 207.929C267.548 208.038 267.822 208.092 268.099 208.09H274.514C275.089 208.082 275.64 207.857 276.056 207.46C276.472 207.063 276.723 206.524 276.759 205.95L277.075 199.535C277.091 199.258 277.05 198.98 276.954 198.72C276.859 198.459 276.711 198.221 276.519 198.019C276.328 197.818 276.097 197.658 275.842 197.55C275.586 197.441 275.311 197.387 275.033 197.389Z" fill="#263238"/>
<path opacity="0.1" d="M299.095 204.589H282.566C282.326 204.59 282.088 204.542 281.867 204.448C281.646 204.354 281.446 204.216 281.28 204.043C281.114 203.869 280.985 203.663 280.901 203.438C280.817 203.213 280.779 202.973 280.791 202.733C280.815 202.237 281.027 201.768 281.385 201.423C281.742 201.078 282.218 200.883 282.715 200.877H299.249C299.489 200.877 299.727 200.926 299.948 201.02C300.169 201.114 300.368 201.252 300.534 201.426C300.7 201.599 300.829 201.804 300.913 202.029C300.998 202.254 301.036 202.493 301.025 202.733C301 203.23 300.786 203.699 300.427 204.043C300.069 204.388 299.592 204.583 299.095 204.589ZM282.715 201.496C282.382 201.501 282.063 201.631 281.822 201.861C281.58 202.09 281.433 202.401 281.41 202.733C281.402 202.89 281.427 203.047 281.481 203.195C281.535 203.343 281.618 203.478 281.725 203.593C281.834 203.706 281.965 203.796 282.109 203.856C282.254 203.917 282.41 203.947 282.566 203.946H299.095C299.429 203.943 299.75 203.814 299.994 203.585C300.237 203.355 300.384 203.042 300.406 202.708C300.418 202.55 300.397 202.39 300.344 202.24C300.291 202.09 300.208 201.952 300.099 201.836C299.991 201.72 299.859 201.627 299.713 201.564C299.566 201.502 299.409 201.47 299.249 201.471L282.715 201.496Z" fill="#263238"/>
<path d="M271.507 204.273C271.467 204.272 271.427 204.262 271.39 204.245C271.353 204.228 271.32 204.204 271.292 204.174C271.264 204.144 271.243 204.109 271.229 204.071C271.215 204.033 271.209 203.992 271.21 203.952L271.346 201.212C271.346 201.17 271.355 201.13 271.371 201.092C271.387 201.054 271.412 201.02 271.442 200.992C271.472 200.964 271.508 200.943 271.547 200.93C271.586 200.916 271.627 200.911 271.668 200.915C271.751 200.919 271.828 200.956 271.883 201.018C271.939 201.079 271.968 201.16 271.965 201.242L271.829 203.977C271.827 204.017 271.818 204.057 271.801 204.094C271.784 204.131 271.759 204.164 271.73 204.192C271.7 204.219 271.665 204.241 271.626 204.255C271.588 204.269 271.548 204.275 271.507 204.273Z" fill="white"/>
<path d="M271.494 204.589C271.413 204.586 271.336 204.553 271.278 204.496L270.078 203.259C270.049 203.23 270.026 203.196 270.01 203.158C269.994 203.121 269.986 203.08 269.986 203.039C269.986 202.998 269.994 202.958 270.01 202.92C270.026 202.883 270.049 202.848 270.078 202.82C270.107 202.791 270.141 202.768 270.178 202.752C270.216 202.736 270.257 202.728 270.297 202.728C270.338 202.728 270.379 202.736 270.416 202.752C270.454 202.768 270.488 202.791 270.517 202.82L271.501 203.859L272.602 202.807C272.63 202.778 272.665 202.755 272.702 202.74C272.74 202.724 272.78 202.716 272.821 202.716C272.862 202.716 272.902 202.724 272.94 202.74C272.978 202.755 273.012 202.778 273.041 202.807C273.07 202.836 273.092 202.869 273.108 202.906C273.124 202.944 273.132 202.983 273.132 203.024C273.132 203.064 273.124 203.104 273.108 203.141C273.092 203.178 273.07 203.212 273.041 203.24L271.717 204.508C271.655 204.562 271.576 204.591 271.494 204.589Z" fill="white"/>
<path d="M117.15 107.092C118.897 114.667 120.868 129.991 115.753 135.077C115.753 135.077 117.961 141.352 132.048 141.352C147.532 141.352 139.301 135.077 139.301 135.077C130.776 133.065 130.776 125.357 132.048 119.474L117.15 107.092Z" fill="#FDBBB5"/>
<path opacity="0.1" d="M119.95 108.688L132.312 118.708C132.016 120.086 131.633 121.144 131.564 122.556C128.537 122.095 120.123 117.99 119.924 112.782C119.694 111.428 119.703 110.039 119.95 108.688Z" fill="black"/>
<path d="M134.453 105.965C134.453 105.965 135.864 110.069 139.791 107.299C138.784 102.8 140.338 102.745 141.148 99.7268C141.742 98.0223 141.864 96.1888 141.5 94.4209C141.136 92.653 140.3 91.0166 139.08 89.6857L135.927 89.0241C124.201 88.5679 134.453 105.965 134.453 105.965Z" fill="#263238"/>
<path opacity="0.6" d="M134.453 105.965C134.453 105.965 135.864 110.069 139.791 107.299C138.784 102.8 140.338 102.745 141.148 99.7268C141.742 98.0223 141.864 96.1888 141.5 94.4209C141.136 92.653 140.3 91.0166 139.08 89.6857L135.927 89.0241C124.201 88.5679 134.453 105.965 134.453 105.965Z" fill="white"/>
<path d="M118.607 92.0842C119.963 89.3934 122.332 87.3514 125.194 86.4072C128.055 85.4631 131.175 85.694 133.866 87.0492C142.15 90.9676 143.048 103.8 141.021 111.427C140.527 113.411 139.5 115.223 138.052 116.667C136.605 118.111 134.79 119.132 132.804 119.62C130.819 120.109 128.738 120.046 126.785 119.439C124.833 118.831 123.083 117.703 121.725 116.174C117.475 111.511 117.714 106.454 117.405 97.822C117.299 95.8373 117.713 93.8594 118.607 92.0842Z" fill="#FDBBB5"/>
<path d="M118.058 105.553C118.058 105.553 120.118 108.873 123.551 105.887C121.819 102.167 123.334 101.874 123.647 99.1378C123.937 97.5302 123.741 95.8726 123.085 94.3765C122.43 92.8804 121.343 91.6135 119.964 90.7371L116.746 90.6659C102.193 93.1335 118.058 105.553 118.058 105.553Z" fill="#263238"/>
<path opacity="0.6" d="M118.058 105.553C118.058 105.553 120.118 108.873 123.551 105.887C121.819 102.167 123.334 101.874 123.647 99.1378C123.937 97.5302 123.741 95.8726 123.085 94.3765C122.43 92.8804 121.343 91.6135 119.964 90.7371L116.746 90.6659C102.193 93.1335 118.058 105.553 118.058 105.553Z" fill="white"/>
<path d="M126.175 79.4861C125.372 79.4149 124.564 79.5577 123.833 79.8999C123.103 80.2422 122.476 80.7717 122.016 81.4347C121.418 82.317 120.94 83.5532 119.877 83.6265C119.334 83.5809 118.808 83.4207 118.332 83.1566C116.394 82.4307 114.158 83.5651 112.908 85.2198C111.788 86.9672 110.991 88.9013 110.554 90.9303C110.121 92.9724 109.129 94.8543 107.69 96.3665C109.508 96.7043 111.377 96.6544 113.175 96.2199C114.972 95.7855 116.657 94.9764 118.12 93.8456C117.5 95.2381 116.448 96.3934 115.119 97.14C118.65 97.199 122.082 95.974 124.778 93.6928C126.288 92.4043 127.57 90.7783 129.383 89.9689C131.195 89.1595 133.786 89.536 134.471 91.3944C134.512 91.1328 134.607 90.8825 134.749 90.6589C134.891 90.4354 135.077 90.2434 135.297 90.0947C135.516 89.9461 135.763 89.8441 136.024 89.7949C136.284 89.7458 136.551 89.7505 136.81 89.8089C137.852 90.119 138.775 90.7408 139.454 91.5906C140.126 92.4349 141.01 93.0872 142.015 93.4816C142.521 93.6574 143.077 93.6258 143.56 93.3936C144.044 93.1614 144.416 92.7475 144.596 92.2421C143.889 92.3715 143.159 92.2444 142.538 91.8837C141.916 91.5231 141.444 90.9525 141.205 90.2747C142.378 90.5713 143.618 90.4461 144.708 89.9211C143.173 90.2328 138.764 85.625 137.916 84.2711C137.146 82.8889 135.948 81.7942 134.503 81.1517C132.824 80.5557 131.85 82.6345 130.321 82.2723C128.792 81.91 127.838 79.6507 126.175 79.4861Z" fill="#263238"/>
<path d="M132.155 109.333C130.828 108.718 129.798 107.601 129.294 106.228L131.866 106.534C132.956 106.653 136.111 107.09 135.901 108.815C135.691 110.539 133.075 109.746 132.155 109.333Z" fill="#263238"/>
<path d="M139.508 110.102C140.205 109.899 140.855 109.56 141.421 109.105C141.987 108.65 142.458 108.087 142.806 107.45L140.179 107.357C139.085 107.314 135.895 107.26 135.846 109.029C135.797 110.797 138.524 110.378 139.508 110.102Z" fill="#263238"/>
<path d="M114.901 103.959C115.553 105.625 116.547 107.679 118.215 108.581C122.499 109.855 122.085 108.189 121.816 105.591C121.661 103.455 120.105 100.564 117.831 100.154C115.557 99.7426 114.249 102.293 114.901 103.959Z" fill="#FDBBB5"/>
<path fill-rule="evenodd" clip-rule="evenodd" d="M114.22 221.354L138.232 305.618L155.751 367.724H168.529L149.912 221.354H114.22Z" fill="#6C63FF"/>
<path opacity="0.25" fill-rule="evenodd" clip-rule="evenodd" d="M114.22 221.354L138.232 305.618L155.751 367.724H168.529L149.912 221.354H114.22Z" fill="black"/>
<path fill-rule="evenodd" clip-rule="evenodd" d="M102.5 221.354C101.944 264.785 105.349 288.473 104.766 292.419C104.182 296.364 95.3651 321.466 78.3135 367.724H91.5505C113.259 323.348 125.377 298.246 127.904 292.419C130.432 286.591 138.234 262.903 149.984 221.354H102.5Z" fill="#6C63FF"/>
<path fill-rule="evenodd" clip-rule="evenodd" d="M77.1309 379.646L77.7932 365.738L91.7016 365.738C101.594 372.692 117.532 376.997 117.532 376.997V379.646H92.3639L83.7539 378.322V379.646H77.1309Z" fill="#263238"/>
<path fill-rule="evenodd" clip-rule="evenodd" d="M153.958 379.646L154.62 365.738L168.529 365.738C178.421 372.692 194.359 376.997 194.359 376.997V379.646H169.191L160.581 378.322V379.646H153.958Z" fill="#263238"/>
<path d="M101.609 220.961C100.942 220.963 100.386 221.461 100.312 222.123L99.8174 226.533C99.7301 227.312 100.337 228.003 101.123 228.019L152.46 229.042C153.14 229.056 153.714 228.554 153.789 227.88L154.415 222.268C154.503 221.477 153.876 220.78 153.078 220.783L101.609 220.961Z" fill="#2E353A"/>
<path opacity="0.2" d="M101.609 220.961C100.942 220.963 100.386 221.461 100.312 222.123L99.8174 226.533C99.7301 227.312 100.337 228.003 101.123 228.019L152.46 229.042C153.14 229.056 153.714 228.554 153.789 227.88L154.415 222.268C154.503 221.477 153.876 220.78 153.078 220.783L101.609 220.961Z" fill="black"/>
<path d="M118.468 228.42L118.852 221.411C118.889 220.751 118.383 220.193 117.723 220.165C117.063 220.137 116.498 220.649 116.462 221.308L116.077 228.317C116.041 228.977 116.547 229.535 117.207 229.563C117.867 229.591 118.432 229.08 118.468 228.42Z" fill="#2E353A"/>
<path d="M139.809 220.949L130.549 220.895C130.183 220.893 129.885 221.188 129.883 221.553L129.844 228.255C129.842 228.621 130.137 228.919 130.502 228.921L139.763 228.975C140.129 228.977 140.427 228.683 140.429 228.317L140.468 221.615C140.47 221.249 140.175 220.951 139.809 220.949Z" fill="#BABABA"/>
<path d="M139.306 221.326L131.049 221.278C130.683 221.276 130.385 221.571 130.383 221.937L130.348 227.878C130.346 228.244 130.641 228.542 131.007 228.544L139.264 228.592C139.63 228.594 139.928 228.299 139.93 227.934L139.965 221.992C139.967 221.627 139.672 221.328 139.306 221.326Z" fill="white"/>
<path d="M148.049 228.746L148.466 221.143C148.502 220.484 147.996 219.926 147.336 219.898C146.676 219.869 146.111 220.381 146.075 221.041L145.658 228.644C145.622 229.303 146.128 229.861 146.788 229.89C147.448 229.918 148.012 229.406 148.049 228.746Z" fill="#2E353A"/>
<path d="M184.983 143.637C184.38 141.971 185.855 132.285 185.855 132.285C185.855 132.285 198.327 126.921 200.358 125.525C202.389 124.128 204.025 131.24 202.706 132.59C201.388 133.94 197.393 139.078 191.398 138.617L189.985 146.474L184.983 143.637Z" fill="#FDBBB5"/>
<path d="M150.341 140.323C154.007 141.516 171.093 154.877 174.792 154.756C178.491 154.636 184.078 138.595 184.078 138.595L191.388 141.407C191.388 141.407 188.735 171.251 181.642 173.957C174.549 176.664 146.884 168.34 146.884 168.34L150.341 140.323Z" fill="#263238"/>
<path opacity="0.2" d="M191.375 141.428C191.375 141.428 188.733 171.285 181.64 173.991C179.138 174.924 174.106 174.538 168.62 173.599C161.284 172.237 154.024 170.493 146.871 168.373L147.301 164.963L150.319 140.333C153.975 141.502 171.06 154.875 174.76 154.743C178.46 154.611 184.057 138.582 184.057 138.582L191.375 141.428Z" fill="white"/>
<path opacity="0.2" d="M168.62 173.598C161.283 172.237 154.024 170.493 146.87 168.372L147.301 164.963C148.308 161.665 149.224 158.822 149.224 158.822C149.224 158.822 169.187 164.743 168.62 173.598Z" fill="black"/>
<path d="M149.973 220.873L102.27 221.864C102.212 218.817 97.4696 196.215 97.8101 189.734C98.1921 182.566 98.7295 174.106 99.2727 166.157C100.268 151.596 101.264 138.773 101.264 138.773C101.264 138.773 106.283 134.456 117.549 133.297C120.699 132.973 124.645 136.911 128.798 137.244C132.153 137.586 135.187 134.208 138.429 135.2C142.722 136.513 146.84 138.448 150.582 141.143C161.204 182.114 149.973 220.873 149.973 220.873Z" fill="#263238"/>
<path d="M134.153 139.575L131.14 146.003L135.078 180.404L132.359 183.874L128.51 180.226L128.788 146.599L123.148 139.168L129.444 138.054L134.153 139.575Z" fill="#6C63FF"/>
<path d="M117.559 129.783L129.648 136.866L135.381 131.647L141.278 135.869L136.39 145.169L129.863 139.346L124.604 144.825L112.665 133.592L117.559 129.783Z" fill="#263238"/>
<path opacity="0.2" d="M117.559 129.783L129.648 136.866L135.381 131.647L141.278 135.869L136.39 145.169L129.863 139.346L124.604 144.825L112.665 133.592L117.559 129.783Z" fill="white"/>
<path opacity="0.2" d="M98.3454 182.813C98.6614 176.503 99.1209 169.058 99.5909 162.062L105.18 157.992C105.18 157.992 104.529 176.425 98.3454 182.813Z" fill="black"/>
<path d="M70.1864 163.606L62.0743 159.079C62.0743 159.079 59.5216 156.723 57.752 156.767C55.9823 156.811 44.7986 157.56 44.1801 157.704C43.5615 157.848 44.7193 165.328 46.8804 165.168C49.0414 165.008 57.1395 166.35 58.3214 165.169L67.5781 173.542L70.1864 163.606Z" fill="#FDBBB5"/>
<path d="M101.751 137.715C97.3064 137.869 84.5806 162.057 80.1417 164.337C75.7028 166.617 66.0042 160.191 66.0042 160.191L60.6877 170.819C60.6877 170.819 76.4065 184.401 82.3588 183.801C93.8832 182.718 102.56 167.151 102.56 167.151C102.56 167.151 107.98 153.865 104.881 143.243C104.209 141.213 103.146 139.335 101.751 137.715Z" fill="#263238"/>
<path opacity="0.2" d="M101.751 137.715C97.3064 137.869 84.5806 162.057 80.1417 164.337C75.7028 166.617 66.0042 160.191 66.0042 160.191L60.6877 170.819C60.6877 170.819 76.4065 184.401 82.3588 183.801C93.8832 182.718 102.56 167.151 102.56 167.151C102.56 167.151 107.98 153.865 104.881 143.243C104.209 141.213 103.146 139.335 101.751 137.715Z" fill="white"/>
<path d="M183.221 70.3674C183.147 70.3543 183.075 70.3318 183.006 70.3004C182.809 70.2024 182.659 70.0308 182.587 69.8227C182.516 69.6146 182.529 69.3867 182.624 69.1884L184.52 65.303C184.616 65.1058 184.787 64.9548 184.994 64.8832C185.201 64.8116 185.428 64.8253 185.626 64.9212C185.823 65.0172 185.974 65.1875 186.045 65.3948C186.117 65.6021 186.103 65.8293 186.007 66.0265L184.118 69.9119C184.04 70.0763 183.91 70.2102 183.747 70.2926C183.585 70.375 183.4 70.4013 183.221 70.3674Z" fill="#E0E0E0"/>
<path d="M173.843 68.5589C173.664 68.523 173.502 68.4296 173.381 68.2929C173.26 68.1563 173.187 67.9839 173.173 67.802L172.865 63.4879C172.845 63.3727 172.849 63.2546 172.878 63.1413C172.907 63.028 172.959 62.922 173.031 62.8303C173.104 62.7386 173.195 62.6632 173.299 62.6091C173.402 62.555 173.516 62.5233 173.633 62.5162C173.749 62.5091 173.866 62.5267 173.976 62.5678C174.085 62.609 174.184 62.6727 174.268 62.755C174.351 62.8372 174.415 62.936 174.458 63.045C174.5 63.154 174.519 63.2707 174.513 63.3874L174.821 67.7015C174.829 67.8097 174.816 67.9186 174.782 68.0217C174.748 68.1248 174.694 68.2202 174.623 68.3024C174.552 68.3845 174.465 68.4519 174.368 68.5005C174.271 68.5491 174.166 68.5781 174.057 68.5857C173.985 68.5871 173.913 68.5781 173.843 68.5589Z" fill="#E0E0E0"/>
<path d="M164.799 71.6738C164.584 71.6322 164.393 71.507 164.27 71.3255L161.845 67.7416C161.757 67.6561 161.69 67.5523 161.647 67.4377C161.604 67.323 161.587 67.2004 161.598 67.0785C161.608 66.9565 161.645 66.8384 161.706 66.7324C161.767 66.6264 161.851 66.5353 161.951 66.4655C162.052 66.3956 162.166 66.3489 162.287 66.3285C162.408 66.3081 162.531 66.3146 162.649 66.3476C162.767 66.3806 162.876 66.4392 162.969 66.5192C163.061 66.5992 163.135 66.6987 163.185 66.8105L165.61 70.3944C165.732 70.5774 165.777 70.8016 165.734 71.0176C165.692 71.2337 165.565 71.424 165.382 71.5466C165.211 71.6609 165.002 71.7064 164.799 71.6738Z" fill="#E0E0E0"/>
<path d="M158.542 78.8951C158.47 78.8806 158.4 78.8558 158.335 78.8214L154.416 76.9324C154.219 76.8329 154.069 76.6591 154 76.4493C153.931 76.2395 153.948 76.0109 154.047 75.8137C154.147 75.6165 154.321 75.4668 154.53 75.3978C154.74 75.3287 154.969 75.3457 155.166 75.4452L159.058 77.3343C159.243 77.4199 159.39 77.5704 159.471 77.7572C159.552 77.9441 159.562 78.1542 159.498 78.3477C159.434 78.5412 159.302 78.7046 159.126 78.8068C158.949 78.9089 158.742 78.9428 158.542 78.9018V78.8951Z" fill="#E0E0E0"/>
<path d="M187.909 105.831C187.802 105.812 187.699 105.771 187.607 105.711C187.515 105.651 187.435 105.574 187.374 105.483L184.949 101.899C184.838 101.717 184.802 101.499 184.847 101.291C184.893 101.083 185.016 100.9 185.193 100.781C185.369 100.661 185.584 100.614 185.795 100.649C186.005 100.684 186.193 100.798 186.322 100.968L188.747 104.552C188.868 104.735 188.913 104.958 188.872 105.173C188.83 105.389 188.706 105.579 188.526 105.704C188.345 105.826 188.124 105.872 187.909 105.831Z" fill="#E0E0E0"/>
<path d="M195.621 96.9221C195.547 96.909 195.475 96.8865 195.406 96.8551L191.521 94.966C191.333 94.8645 191.19 94.6941 191.124 94.4903C191.058 94.2866 191.074 94.0652 191.167 93.8724C191.26 93.6796 191.425 93.5304 191.625 93.4558C191.826 93.3812 192.048 93.3871 192.245 93.4722L196.137 95.3612C196.315 95.4506 196.455 95.6011 196.532 95.7853C196.608 95.9696 196.616 96.1752 196.553 96.3646C196.491 96.554 196.362 96.7146 196.191 96.8169C196.02 96.9193 195.817 96.9566 195.621 96.9221Z" fill="#E0E0E0"/>
<path d="M193.544 85.6543C193.348 85.6142 193.174 85.5052 193.052 85.3471C192.931 85.1889 192.87 84.9923 192.881 84.7931C192.893 84.5939 192.975 84.4055 193.114 84.2622C193.253 84.119 193.439 84.0305 193.638 84.013L197.952 83.7049C198.064 83.6906 198.178 83.6994 198.287 83.7307C198.395 83.762 198.496 83.8152 198.584 83.8871C198.671 83.9589 198.743 84.0478 198.795 84.1483C198.847 84.2489 198.878 84.359 198.885 84.4719C198.893 84.5847 198.878 84.698 198.84 84.8047C198.803 84.9114 198.744 85.0093 198.667 85.0924C198.59 85.1756 198.497 85.2421 198.394 85.288C198.29 85.334 198.179 85.3583 198.066 85.3595L193.752 85.6677C193.682 85.6734 193.612 85.6689 193.544 85.6543Z" fill="#E0E0E0"/>
<path d="M190.422 76.6242C190.205 76.5808 190.014 76.4562 189.886 76.2758C189.765 76.0931 189.72 75.87 189.761 75.6546C189.802 75.4391 189.927 75.2484 190.107 75.1236L193.691 72.7054C193.877 72.5837 194.103 72.5407 194.32 72.5859C194.538 72.6311 194.728 72.7609 194.85 72.9465C194.972 73.1322 195.015 73.3586 194.969 73.5759C194.924 73.7932 194.794 73.9837 194.609 74.1054L191.025 76.5237C190.844 76.6339 190.628 76.6699 190.422 76.6242Z" fill="#E0E0E0"/>
<path d="M162.835 115.034L157.328 111.808L156.967 108.918L165.543 113.939L162.835 115.034Z" fill="#6C63FF"/>
<path opacity="0.5" d="M162.835 115.034L157.328 111.808L156.967 108.918L165.543 113.939L162.835 115.034Z" fill="white"/>
<path d="M187.12 94.8655C186.123 96.5573 184.78 98.0197 183.179 99.157C181.578 100.294 179.755 101.081 177.829 101.465C176.552 101.701 175.339 102.204 174.27 102.942C173.202 103.679 172.301 104.634 171.627 105.744L171.092 106.671L160.597 100.612L161.132 99.685C161.776 98.5577 162.172 97.3064 162.295 96.0142C162.418 94.722 162.264 93.4184 161.845 92.1901C160.979 89.4528 160.979 86.5151 161.844 83.7776C162.709 81.0402 164.398 78.6361 166.679 76.8932C168.96 75.1503 171.723 74.1532 174.592 74.0381C177.461 73.923 180.295 74.6953 182.709 76.2498C185.643 78.2357 187.724 81.2507 188.541 84.6982C189.358 88.1456 188.851 91.7742 187.12 94.8655Z" fill="#6C63FF"/>
<path opacity="0.5" d="M187.12 94.8655C186.123 96.5573 184.78 98.0197 183.179 99.157C181.578 100.294 179.755 101.081 177.829 101.465C176.552 101.701 175.339 102.204 174.27 102.942C173.202 103.679 172.301 104.634 171.627 105.744L171.092 106.671L160.597 100.612L161.132 99.685C161.776 98.5577 162.172 97.3064 162.295 96.0142C162.418 94.722 162.264 93.4184 161.845 92.1901C160.979 89.4528 160.979 86.5151 161.844 83.7776C162.709 81.0402 164.398 78.6361 166.679 76.8932C168.96 75.1503 171.723 74.1532 174.592 74.0381C177.461 73.923 180.295 74.6953 182.709 76.2498C185.643 78.2357 187.724 81.2507 188.541 84.6982C189.358 88.1456 188.851 91.7742 187.12 94.8655Z" fill="white"/>
<path d="M167.349 104.723C167.248 104.673 167.171 104.585 167.134 104.479C167.096 104.373 167.101 104.256 167.148 104.154C168.24 101.965 169.59 99.914 171.167 98.0444C171.618 97.5024 172.106 96.9921 172.628 96.517C172.348 96.2191 172.098 95.8937 171.884 95.5457C171.492 94.9228 171.194 94.2457 171 93.536C170.317 93.8141 169.597 93.9901 168.863 94.0585C168.455 94.1023 168.044 94.1023 167.637 94.0585C167.575 94.7618 167.465 95.4601 167.309 96.1486C166.777 98.5237 165.963 100.827 164.884 103.008C164.83 103.109 164.739 103.185 164.63 103.219C164.52 103.253 164.402 103.242 164.301 103.189C164.2 103.136 164.124 103.044 164.09 102.935C164.056 102.826 164.067 102.708 164.12 102.606C165.158 100.472 165.945 98.2237 166.465 95.9074C166.62 95.2215 166.725 94.5252 166.779 93.8241C166.357 93.7122 165.968 93.4987 165.647 93.2021C165.326 92.9056 165.082 92.5349 164.937 92.1226C164.824 91.815 164.825 91.4772 164.939 91.17C165.053 90.8629 165.274 90.6068 165.56 90.4479C165.756 90.335 165.98 90.2825 166.205 90.2968C166.431 90.3111 166.647 90.3916 166.826 90.5282C167.376 90.9503 167.657 91.868 167.664 93.1408C168.033 93.1849 168.406 93.1849 168.776 93.1408C169.483 93.0742 170.175 92.8955 170.826 92.6116C170.743 92.1907 170.746 91.7576 170.834 91.3377C170.921 90.9179 171.091 90.5197 171.335 90.1665C171.513 89.9789 171.746 89.8532 172.001 89.8079C172.256 89.7625 172.518 89.7998 172.75 89.9143C172.982 90.0288 173.172 90.2145 173.291 90.4443C173.409 90.6741 173.452 90.9359 173.411 91.1914C173.291 91.609 173.085 91.9971 172.807 92.3314C172.529 92.6657 172.185 92.939 171.797 93.1341C171.964 93.8274 172.245 94.4883 172.628 95.0902C172.816 95.4054 173.041 95.6976 173.297 95.961C174.309 95.1906 175.213 94.8624 175.883 95.0433C176.101 95.1034 176.295 95.2264 176.443 95.3968C176.591 95.5672 176.685 95.7775 176.714 96.0012C176.759 96.3252 176.689 96.6549 176.515 96.932C176.341 97.209 176.074 97.4156 175.763 97.5151C175.347 97.6487 174.906 97.6789 174.476 97.603C174.046 97.5271 173.642 97.3475 173.297 97.0797C172.76 97.548 172.258 98.0563 171.797 98.6004C170.272 100.413 168.966 102.398 167.905 104.515C167.881 104.567 167.847 104.614 167.805 104.652C167.763 104.691 167.714 104.721 167.66 104.74C167.607 104.76 167.55 104.768 167.493 104.765C167.436 104.762 167.38 104.748 167.329 104.723H167.349ZM166.25 91.2182C166.202 91.1986 166.15 91.1913 166.099 91.1972C166.047 91.203 165.998 91.2218 165.955 91.2517C165.641 91.4192 165.728 91.8077 165.761 91.9216C165.845 92.1603 165.982 92.3773 166.16 92.5569C166.339 92.7364 166.555 92.8741 166.793 92.9599C166.843 92.3562 166.669 91.755 166.304 91.2718L166.25 91.2182ZM174.007 96.5103C174.219 96.6458 174.457 96.7333 174.706 96.7669C174.955 96.8004 175.208 96.7792 175.448 96.7046C175.562 96.6644 175.917 96.4969 175.856 96.1486C175.823 95.9476 175.736 95.894 175.649 95.8739C175.367 95.7935 174.791 95.9543 174.007 96.5103ZM172.373 90.7359C172.343 90.7137 172.309 90.6977 172.273 90.6887C172.237 90.6798 172.2 90.678 172.163 90.6836C172.126 90.6893 172.091 90.7021 172.059 90.7214C172.027 90.7407 172 90.7661 171.978 90.7962C171.698 91.2112 171.579 91.7135 171.643 92.2097C172.074 91.9582 172.402 91.5617 172.567 91.091C172.588 91.0181 172.579 90.94 172.543 90.8736C172.507 90.8071 172.446 90.7577 172.373 90.7359Z" fill="#6C63FF"/>
<path d="M171.06 108.705C170.851 109.056 170.512 109.311 170.116 109.415C169.721 109.518 169.3 109.461 168.946 109.257L167.582 108.469C167.473 108.43 167.372 108.372 167.284 108.297L159.413 103.753C159.106 103.526 158.894 103.193 158.816 102.82C158.739 102.446 158.801 102.056 158.992 101.726C159.183 101.395 159.489 101.146 159.852 101.026C160.214 100.907 160.608 100.925 160.958 101.077L162.34 101.875L162.62 102.036L170.491 106.58C170.67 106.681 170.827 106.816 170.953 106.977C171.079 107.139 171.171 107.325 171.224 107.523C171.277 107.721 171.29 107.927 171.262 108.13C171.234 108.333 171.165 108.529 171.06 108.705Z" fill="#6C63FF"/>
<path d="M169.106 110.958C168.919 111.304 168.604 111.562 168.227 111.677C167.851 111.792 167.445 111.753 167.097 111.571L165.82 110.833C165.717 110.799 165.622 110.744 165.54 110.672L158.211 106.441C157.854 106.234 157.594 105.895 157.487 105.496C157.38 105.098 157.436 104.673 157.642 104.316C157.848 103.959 158.188 103.698 158.587 103.592C158.985 103.485 159.409 103.541 159.767 103.747L161.078 104.504L161.323 104.646L168.635 108.867C168.807 108.969 168.957 109.106 169.075 109.268C169.194 109.43 169.277 109.615 169.321 109.811C169.366 110.007 169.369 110.21 169.332 110.407C169.295 110.604 169.218 110.792 169.106 110.958Z" fill="#6C63FF"/>
<path d="M167.129 113.292C166.955 113.628 166.658 113.884 166.3 114.008C165.943 114.131 165.551 114.112 165.207 113.955L164.105 113.319C164.008 113.286 163.919 113.234 163.843 113.167L157.056 109.249C156.746 109.029 156.535 108.695 156.467 108.321C156.4 107.946 156.483 107.56 156.697 107.246C156.859 106.908 157.148 106.647 157.501 106.519C157.853 106.392 158.242 106.407 158.583 106.563L159.79 107.26L160.018 107.391L166.787 111.299C167.087 111.525 167.29 111.857 167.353 112.228C167.417 112.598 167.337 112.979 167.129 113.292Z" fill="#6C63FF"/>
<path d="M156.208 109.669L156.632 108.934L165.645 114.208L165.23 114.925L156.208 109.669Z" fill="#6C63FF"/>
<path d="M160.355 100.869L170.92 106.968L171.344 106.234L160.779 100.134L160.355 100.869Z" fill="#6C63FF"/>
<g opacity="0.4">
<path d="M165.67 79.4259C165.13 79.9201 164.707 80.5284 164.432 81.2065C164.388 81.3959 164.407 81.5942 164.485 81.7722C164.562 81.9503 164.695 82.0987 164.863 82.1958C165.031 82.293 165.226 82.3336 165.419 82.3119C165.612 82.2902 165.793 82.2071 165.936 82.075C167.054 81.1514 168.367 80.494 169.777 80.1522C171.186 79.8104 172.654 79.7933 174.071 80.1021C176.154 80.5347 178.538 81.818 180.411 79.8673C180.729 79.503 180.933 79.0523 180.995 78.5722C181.268 74.6252 170.694 74.1172 165.67 79.4259Z" fill="white"/>
</g>
<path opacity="0.4" d="M181.932 80.1394C181.668 80.398 181.479 80.7243 181.388 81.0826C181.296 81.4409 181.304 81.8175 181.412 82.1713C181.66 82.7265 182.084 83.1844 182.619 83.4744C182.866 83.6661 183.152 83.8023 183.457 83.8737C183.762 83.9451 184.079 83.95 184.386 83.8881C184.72 83.7104 184.997 83.4424 185.187 83.1146C185.376 82.7868 185.469 82.4123 185.456 82.034C185.654 79.7928 183.815 78.1712 181.932 80.1394Z" fill="white"/>
<path d="M390.484 62.6786L389.113 63.8244L391.067 66.6591L392.623 65.7914C393.463 66.5923 394.445 67.2302 395.518 67.6724L395.359 69.4474L398.743 70.07L399.233 68.3546C400.392 68.3285 401.536 68.0836 402.604 67.6327L403.75 69.0036L406.585 67.0498L405.717 65.4934C406.518 64.6535 407.156 63.6721 407.598 62.5991L409.373 62.7581L409.996 59.3737L408.28 58.8836C408.258 57.724 408.012 56.5796 407.558 55.5124L408.929 54.3667L406.976 51.5254L405.419 52.3996C404.581 51.597 403.599 50.9589 402.525 50.5186L402.684 48.7437L399.299 48.1211L398.809 49.8298C397.65 49.8582 396.506 50.1053 395.438 50.5584L394.292 49.1874L391.458 51.1743L392.325 52.7308C391.526 53.5694 390.888 54.5484 390.444 55.6184L388.669 55.4661L388.047 58.8505L389.762 59.3406C389.789 60.4889 390.034 61.6217 390.484 62.6786ZM394.458 58.2478C394.629 57.3493 395.062 56.5214 395.702 55.8684C396.343 55.2153 397.162 54.7663 398.057 54.5777C398.952 54.3892 399.882 54.4695 400.732 54.8087C401.581 55.1479 402.311 55.7307 402.83 56.4838C403.349 57.2369 403.634 58.1267 403.648 59.0412C403.662 59.9557 403.406 60.854 402.911 61.6232C402.416 62.3923 401.705 62.9978 400.867 63.3636C400.028 63.7293 399.1 63.839 398.2 63.6787C397.596 63.5701 397.019 63.3435 396.502 63.0116C395.985 62.6798 395.539 62.2493 395.189 61.7449C394.839 61.2404 394.592 60.6719 394.462 60.0718C394.332 59.4717 394.322 58.8519 394.432 58.2478H394.458Z" fill="#6C63FF"/>
<path opacity="0.6" d="M415.593 74.4675L418.03 74.9178L418.381 73.686C419.212 73.667 420.032 73.4917 420.799 73.1693L421.626 74.1496L423.666 72.7521L423.037 71.6262C423.606 71.0254 424.056 70.3219 424.362 69.5532L425.64 69.6657L426.09 67.2285L424.858 66.8841C424.838 66.0503 424.661 65.2279 424.335 64.46L425.322 63.6387L423.918 61.5989L422.799 62.2214C422.196 61.6522 421.49 61.2027 420.719 60.8968L420.832 59.6252L418.401 59.1748L418.05 60.4067C417.216 60.4229 416.394 60.5982 415.626 60.9233L414.831 59.8967L412.791 61.3008L413.42 62.4267C412.85 63.0264 412.4 63.7302 412.096 64.4997L410.818 64.3872L410.367 66.8178L411.599 67.1688C411.619 68.0026 411.797 68.825 412.122 69.5929L411.096 70.4406L412.5 72.4806L413.619 71.858C414.226 72.4228 414.931 72.8717 415.699 73.1826L415.593 74.4675ZM414.93 66.4204C415.051 65.769 415.363 65.168 415.825 64.6934C416.287 64.2188 416.88 63.892 417.528 63.7541C418.176 63.6162 418.851 63.6736 419.466 63.9189C420.082 64.1642 420.611 64.5864 420.986 65.1322C421.362 65.6781 421.567 66.323 421.576 66.9855C421.586 67.648 421.398 68.2984 421.038 68.8544C420.678 69.4105 420.161 69.8473 419.552 70.1095C418.944 70.3718 418.271 70.4479 417.619 70.3281C416.747 70.167 415.974 69.6666 415.47 68.9366C414.966 68.2066 414.772 67.3065 414.93 66.4337V66.4204Z" fill="#6C63FF"/>
<path opacity="0.5" d="M396.875 80.0179C396.902 81.0086 397.113 81.9855 397.498 82.899L396.325 83.8792L397.994 86.3099L399.319 85.5615C400.032 86.2507 400.871 86.797 401.789 87.1709L401.65 88.6875L404.551 89.224L404.969 87.7603C405.959 87.7332 406.936 87.5221 407.85 87.1378L408.83 88.31L411.26 86.641L410.512 85.3164C411.2 84.5996 411.746 83.7592 412.121 82.8394L413.638 82.9785L414.175 80.0776L412.711 79.6603C412.689 78.6697 412.48 77.6921 412.095 76.7793L413.281 75.7924L411.605 73.3618L410.28 74.1102C409.56 73.4125 408.712 72.8595 407.783 72.4809L407.916 70.9642L405.015 70.4277L404.598 71.8914C403.607 71.9186 402.63 72.1297 401.717 72.514L400.736 71.3417L398.306 73.0107L399.054 74.3354C398.368 75.0539 397.823 75.8939 397.445 76.8124L395.928 76.6733L395.392 79.5742L396.875 80.0179ZM400.849 79.1106C400.992 78.3386 401.361 77.6264 401.909 77.0639C402.457 76.5014 403.159 76.1138 403.927 75.95C404.695 75.7863 405.494 75.8536 406.224 76.1437C406.953 76.4337 407.581 76.9334 408.027 77.5796C408.473 78.2259 408.717 78.9898 408.729 79.7749C408.742 80.56 408.521 81.331 408.095 81.9908C407.67 82.6506 407.058 83.1695 406.338 83.482C405.617 83.7945 404.821 83.8866 404.048 83.7467C403.535 83.6505 403.045 83.454 402.608 83.1685C402.171 82.883 401.794 82.5141 401.499 82.0829C401.205 81.6517 400.998 81.1667 400.891 80.6555C400.784 80.1444 400.779 79.6171 400.876 79.104L400.849 79.1106Z" fill="#6C63FF"/>
<path d="M283.897 53.7527C283.069 53.144 282.083 52.7879 281.057 52.7276C280.032 52.6672 279.01 52.9052 278.117 53.4127C276.85 51.0878 274.737 49.3398 272.216 48.5317C269.695 47.7235 266.959 47.9173 264.577 49.0728C263.964 46.4943 262.492 44.2013 260.402 42.5711C258.312 40.9408 255.73 40.0703 253.08 40.1029C250.43 40.1355 247.87 41.0692 245.821 42.7504C243.772 44.4315 242.356 46.76 241.807 49.3528C241.739 50.1859 241.437 50.983 240.937 51.6527C239.987 52.6527 238.407 52.3027 237.057 52.1927C234.921 52.0801 232.809 52.684 231.055 53.9087C229.301 55.1334 228.007 56.9086 227.377 58.9528L285.897 58.7328C286.118 57.7978 286.044 56.8174 285.686 55.9259C285.328 55.0345 284.703 54.2754 283.897 53.7527Z" fill="#E6E6E6"/>
<path d="M353.854 264.55C352.863 263.827 351.684 263.404 350.458 263.333C349.233 263.263 348.013 263.546 346.944 264.15C345.431 261.374 342.907 259.287 339.896 258.322C336.885 257.358 333.619 257.59 330.774 258.97C330.038 255.892 328.278 253.156 325.782 251.21C323.285 249.265 320.202 248.226 317.037 248.265C313.873 248.303 310.816 249.416 308.367 251.422C305.919 253.427 304.225 256.205 303.564 259.3C303.498 260.293 303.151 261.247 302.564 262.05C301.434 263.21 299.564 262.82 297.934 262.7C295.382 262.564 292.858 263.284 290.762 264.746C288.666 266.208 287.118 268.328 286.364 270.77L356.284 270.51C356.543 269.387 356.448 268.212 356.013 267.145C355.578 266.078 354.824 265.172 353.854 264.55Z" fill="#E6E6E6"/>
</svg>
